<?xml version="1.0" encoding="utf-8"?>
<!-- Generator: Adobe Illustrator 21.0.2, SVG Export Plug-In . SVG Version: 6.00 Build 0)  -->
<svg version="1.1" id="yoga" xmlns="http://www.w3.org/2000/svg" xmlns:xlink="http://www.w3.org/1999/xlink" x="0px" y="0px"
	 width="2272px" height="1800px" viewBox="0 0 2272 1800" enable-background="new 0 0 2272 1800" xml:space="preserve">
<g>
	<path fill="#FFF795" d="M427.3,1501.9c129.9,8.6,260.1,11.9,390.3,11.4c130.4-0.5,260.7-4.7,390.9-11.4
		c119-6.1,237.9-14.2,356.9-18.6c98.8-3.6,197.8-5,296.6-0.9c95.1-140.2,150.6-309.3,150.6-491.5c0-484.1-392.5-876.6-876.6-876.6
		S259.4,506.8,259.4,991c0,190.5,60.8,366.8,164,510.6C424.7,1501.7,426,1501.8,427.3,1501.9z"/>
</g>
<g>
	<g>
		<g>
			<g>
				<g>
					<g>
						<g>
							<path fill="#01BAB5" d="M547.3,810.5c3.1-2.2,9.4-5,16.8,0.3c0.9,0.6,2.1,0.5,2.8-0.4c0.6-0.9,0.4-2.1-0.4-2.8
								c-6.8-5-14.6-5.1-21.4-0.4c-8.2,5.7-12.3,17-9.7,26.3c4.1,14.4,15.4,21.8,30.1,19.8c17.7-2.4,36.8-18.2,37-37.9
								c0.1-14.1-6.4-29.1-17.3-40.1c-9.8-9.8-21.8-15.2-33.9-15.2c0,0,0,0,0,0c-15.8,0-34.3,8.1-48.4,21
								c-16.6,15.3-25.7,35.7-25.7,57.7c0,84.4,76.4,125.3,150.2,164.7c32.4,17.3,65.9,35.2,92,56.5c29.1,23.7,45.8,49.2,51.3,78
								c0.2,1,1,1.6,2,1.6c0.1,0,0.2,0,0.4,0c1.1-0.2,1.8-1.2,1.6-2.3c-5.6-29.8-22.8-56.1-52.7-80.3
								c-26.4-21.5-60.1-39.5-92.7-56.9c-36.5-19.5-74.2-39.7-102.1-64.9c-31-28.1-46-59.6-46-96.3c0-20.8,8.7-40.3,24.4-54.7
								c13.4-12.3,30.9-20,45.7-20c0,0,0,0,0,0c11.1,0,22.1,5,31.1,14c10.2,10.3,16.2,24.2,16.1,37.3c-0.1,17.3-17.8,31.8-33.5,33.9
								c-12.8,1.7-22.2-4.4-25.7-17C537,824.7,540.5,815.3,547.3,810.5z"/>
						</g>
					</g>
					<g>
						<g>
							<path fill="#01BAB5" d="M305.2,854c32,0,68.3,20,106.6,41.1c38.5,21.2,78.4,43.2,117.8,47c1.1,0.1,2.1-0.7,2.2-1.8
								c0.1-1.1-0.7-2.1-1.8-2.2c-38.6-3.8-78-25.5-116.2-46.6c-38.9-21.4-75.5-41.6-108.6-41.6c-38.4,0-62.3,23-62.3,60
								c0,18.2,6.3,36.8,17.2,51C272,976.5,287.9,985,305,985c16.3,0,34.4-13.1,34.4-30.7c0-7.9-3.4-15.8-9.2-21.5
								c-6.3-6.2-15.3-9.6-25.1-9.6c-14,0-15.6,9.4-15.6,16.4c0,1.2,0,2.4,0.1,3.6c0,1.2,0.1,2.4,0.1,3.6c0,1.1,0.9,2,2,2s2-0.9,2-2
								c0-1.2,0-2.5-0.1-3.7c0-1.2-0.1-2.3-0.1-3.5c0-8.9,3.3-12.4,11.6-12.4c14.9,0,30.3,10.2,30.3,27.2
								c0,15.1-16.4,26.7-30.4,26.7c-15.8,0-30.6-7.9-41.7-22.3c-10.4-13.5-16.4-31.2-16.4-48.6c0-16.8,5.2-30.9,15.1-40.6
								C272.2,859.4,287.1,854,305.2,854z"/>
						</g>
					</g>
					<g>
						<g>
							<path fill="#01BAB5" d="M457.6,747c0.7,31.3,7.6,57.1,21,78.8c0.4,0.6,1,0.9,1.7,0.9c0.4,0,0.7-0.1,1-0.3
								c0.9-0.6,1.2-1.8,0.7-2.8c-13-21.1-19.7-46.2-20.5-76.8c-0.4-15.1,0.5-31.2,1.3-46.7c3-57.6,6.2-117.1-46.7-157
								c-24.9-18.7-57-22.8-79.9-10.2c-10.9,6-28.8,21.3-26,55.8c1.6,20.1,17,46.4,34.3,50.2c7.4,1.7,18.3,0,28.3-17.4
								c4.9-8.5,5.3-18.2,1.2-25.4c-3.6-6.3-10.2-9.7-18.4-9.7c-1.3,0-2.5,0.1-3.7,0.2c-1.2,0.1-2.3,0.2-3.4,0.2c-1.1,0-2,0.9-2,2
								s0.9,2,2,2c1.3,0,2.5-0.1,3.7-0.2c1.2-0.1,2.3-0.2,3.4-0.2c6.7,0,12,2.7,14.9,7.7c3.4,5.9,3,14.1-1.2,21.4
								c-7,12.2-15.1,17.4-23.9,15.5c-7.2-1.6-14.5-7.8-20.7-17.5c-5.8-9-9.7-19.9-10.4-29.1c-2-23.9,6.5-42.4,23.9-52
								c21.2-11.7,52.3-7.7,75.6,9.9c51.2,38.6,48.1,97,45.1,153.6C458.1,715.6,457.3,731.7,457.6,747z"/>
						</g>
					</g>
					<g>
						<g>
							<path fill="#01BAB5" d="M569.3,584.3c3.1-0.8,7.6-0.9,11.6,3.1c0.8,0.8,2,0.8,2.8,0c0.8-0.8,0.8-2,0-2.8
								c-4.1-4.2-9.6-5.7-15.4-4.2c-7.9,2-15.2,9.3-17.4,17.2c-2.1,7.3-0.7,15,3.9,20.9c4.6,6,11.6,9.5,19.3,9.5
								c11.1,0,21.3-5.4,28.6-15.1c8.5-11.3,11.4-26.3,7.6-39c-3.1-10.5-10.5-19.1-20.9-24.1c-12.1-5.8-26.7-6.3-39.2-1.3
								c-11.1,4.5-39.3,19.6-60.6,63.3c-19.1,39.2-29.3,87.5-31.2,147.6c0,1.1,0.8,2,1.9,2.1c0,0,0,0,0.1,0c1.1,0,2-0.9,2-1.9
								c1.9-59.6,11.9-107.3,30.8-146c14.3-29.4,36.2-52.4,58.5-61.4c11.4-4.6,24.8-4.2,35.9,1.2c9.4,4.5,16.1,12.2,18.8,21.6
								c3.4,11.3,0.6,25.2-7,35.4c-6.5,8.7-15.5,13.5-25.4,13.5c-6.4,0-12.3-2.9-16.1-7.9c-3.8-5-4.9-11.3-3.2-17.4
								C556.5,592.2,562.8,586,569.3,584.3z"/>
						</g>
					</g>
				</g>
				<g>
					<g>
						<g>
							<path fill="#01BAB5" d="M991.1,955.8c0.2,0,0.3,0.1,0.5,0.1c0.9,0,1.7-0.6,1.9-1.5c12.2-46.7-20.3-90.6-51.8-133
								c-17.5-23.6-35.6-48.1-45.8-72.7c-11.5-27.7-11.6-51.7-0.3-75.5c6.3-13.2,17.6-23,32-27.5c12.2-3.8,25.6-3.4,35,1
								c7,3.3,12.5,9.8,15.4,18.2c3.4,9.6,3,20.2-1,28.4c-5.2,10.8-20.6,14.7-31.2,11.3c-8.5-2.7-12.5-9.3-11-18.1
								c0.9-5.4,5.8-10.2,11.4-11.1c2.5-0.4,7.1-0.3,10.1,5c0.5,1,1.7,1.3,2.7,0.8c1-0.5,1.3-1.7,0.8-2.7c-3-5.5-8.2-8.1-14.2-7
								c-7.2,1.2-13.5,7.4-14.7,14.4c-1.8,10.8,3.3,19.3,13.7,22.6c6.2,2,13.6,1.8,20.3-0.4c7.3-2.4,12.8-7,15.7-13
								c4.4-9.2,4.8-21,1.1-31.5c-3.3-9.4-9.6-16.7-17.5-20.5c-20.1-9.5-57.4-3.3-72.4,28.3c-25.8,54.6,10.9,104.2,46.5,152.2
								c32.3,43.6,62.8,84.8,51.1,129.6C989.4,954.4,990,955.5,991.1,955.8z"/>
						</g>
					</g>
					<g>
						<g>
							<path fill="#01BAB5" d="M926.2,578.6c19.5-36.2,39.8-73.7,17.7-115.7c-10.4-19.8-30-32.3-48.9-31.2
								c-15.5,1-27.7,11-34.2,28.4c-2.5,6.7-3.4,15.5-2.3,23.6c1.2,9,4.5,16.1,9.3,19.8c4.4,3.4,12.2,5.8,24.1-2.5
								c5.9-4.1,9.2-10.4,8.7-16.5c-0.4-5.4-3.7-9.7-9.2-12.3c-0.8-0.4-1.7-0.7-2.5-1c-0.8-0.3-1.5-0.6-2.2-0.9c-1-0.5-2.2,0-2.7,1
								c-0.5,1,0,2.2,1,2.7c0.8,0.4,1.7,0.7,2.5,1c0.8,0.3,1.5,0.6,2.2,0.9c4.1,2,6.6,5.2,6.9,9c0.4,4.6-2.3,9.6-7,12.8
								c-8,5.6-14.5,6.5-19.4,2.7c-8.7-6.8-10.2-26.8-5.7-38.8c5.9-15.8,16.8-24.9,30.7-25.8c17-1.1,35.5,10.9,45.1,29
								c21,40.1,1.3,76.6-17.7,111.9c-5.3,9.8-10.7,19.9-15.2,29.9c-9.1,20.4-12.5,39.2-10.5,57.4c0.1,1,1,1.8,2,1.8
								c0.1,0,0.1,0,0.2,0c1.1-0.1,1.9-1.1,1.8-2.2c-1.9-17.4,1.4-35.5,10.2-55.3C915.5,598.3,920.9,588.3,926.2,578.6z"/>
						</g>
					</g>
					<g>
						<g>
							<path fill="#01BAB5" d="M1029.2,536.7c2.1,0.4,4.8,1.6,6.1,5.1c0.4,1,1.5,1.6,2.6,1.2c1-0.4,1.6-1.5,1.2-2.6
								c-1.5-4.2-4.7-6.9-9.1-7.7c-5.9-1.1-13,1.4-17,6c-3.7,4.2-5.1,9.8-4,15.1c1.1,5.4,4.7,9.9,9.8,12.4
								c7.3,3.5,15.7,3.1,23.5-1.1c9.1-4.8,15.6-13.7,17.1-23.1c1.2-7.9-1-15.8-6.2-22.3c-6.1-7.6-15.5-12.4-25.2-13
								c-8.6-0.5-31.5,0.7-58.6,22.4c-24.3,19.4-45.6,47.5-65.1,85.6c-0.5,1-0.1,2.2,0.9,2.7c0.3,0.1,0.6,0.2,0.9,0.2
								c0.7,0,1.4-0.4,1.8-1.1c19.3-37.7,40.2-65.2,64.1-84.3c18.1-14.5,39-22.5,55.9-21.5c8.6,0.5,16.9,4.8,22.3,11.5
								c4.5,5.6,6.5,12.4,5.4,19.2c-1.3,8.1-7.2,16.1-15,20.2c-6.7,3.5-13.8,3.9-19.9,1c-4-1.9-6.7-5.4-7.6-9.6
								c-0.9-4.1,0.3-8.4,3.1-11.7C1019,537.8,1024.7,535.8,1029.2,536.7z"/>
						</g>
					</g>
					<g>
						<g>
							<path fill="#01BAB5" d="M759,554.2c6.8-14.1,19.6-19.9,33.5-15c12.9,4.5,23.5,16.4,32.6,36.3c6.5,14.2,10.7,29.8,14.7,44.9
								c0.5,1.7,0.9,3.4,1.4,5.1c1.1,4,2.2,8.3,3.3,12.9c7.1,28.4,16.8,67.4,40.7,85.6c0.4,0.3,0.8,0.4,1.2,0.4
								c0.6,0,1.2-0.3,1.6-0.8c0.7-0.9,0.5-2.1-0.4-2.8c-22.7-17.3-32.3-55.5-39.2-83.3c-1.2-4.6-2.2-9-3.3-13
								c-0.5-1.7-0.9-3.4-1.4-5.1c-4.1-15.2-8.3-31-14.9-45.6c-9.6-20.9-21-33.5-34.9-38.4c-15.7-5.5-30.8,1.2-38.4,17.1
								c-1.8,3.9-3,7.6-3.5,11.2c-1.2,9.3,1.3,19.3,6.7,27.4c2.7,4,7.3,9.2,13.9,11.1c7.9,2.3,14.6-0.3,17.9-7.1
								c3.9-8.1,2.1-21.3-6.7-27.4c-3-2.1-6.8-2.4-9.8-0.9c-3,1.5-4.8,4.5-5,8c-0.1,1.9,0.4,3.7,1.5,5.3c0.6,0.9,1.8,1.2,2.8,0.6
								c0.9-0.6,1.2-1.8,0.6-2.8c-0.6-0.9-0.9-1.9-0.8-3c0.1-2.1,1.1-3.8,2.7-4.6c1.8-0.9,4-0.7,5.8,0.6c6.9,4.8,8.5,15.8,5.4,22.4
								c-2.4,5-7.1,6.8-13.1,5c-5.4-1.6-9.4-6.1-11.7-9.5c-4.9-7.3-7.2-16.3-6.1-24.6C756.3,561,757.4,557.6,759,554.2z"/>
						</g>
					</g>
				</g>
			</g>
			<g>
				<g>
					<g>
						<g>
							<g>
								<g>
									<path fill="#01BAB5" d="M454.6,713.7c-1.7-1.9-3.3-3.5-5.1-4.9c-4.4-3.3-9.6-5-13.9-6c-1-0.2-2.2-0.5-3.1-0.6
										c-0.9-0.1-1.7-0.2-2.3-0.3c-1.3-0.2-2.1-0.5-2.1-0.5s-0.1,0.2-0.1,0.6c-0.1,0.4-0.1,1,0,1.7c0.1,0.7,0.2,1.6,0.4,2.6
										c0.2,1,0.3,1.9,0.7,3.1c1.2,4.5,4,10.2,9.1,14.1c1.5,1.1,3.1,2,4.6,2.7c1.6,0.7,3.1,1.1,4.5,1.3c2.9,0.5,5.5,0.5,7.7,0.3
										c2.2-0.2,4.1-0.5,5.5-0.7c1.4-0.2,2.2-0.4,2.2-0.4s-0.2-0.8-0.7-2.1c-0.5-1.3-1.5-3.1-2.7-5.1
										C457.9,717.6,456.2,715.5,454.6,713.7z"/>
								</g>
							</g>
						</g>
					</g>
				</g>
				<g>
					<g>
						<g>
							<g>
								<g>
									<path fill="#01BAB5" d="M486.7,666.6c-3.1,0.6-6.5,1.7-9.6,3.6c-3.2,2-5.8,4.7-7.7,7.5c-0.9,1.5-1.8,2.9-2.3,4.4
										c-0.3,0.7-0.6,1.4-0.8,2.1c-0.2,0.7-0.4,1.4-0.5,2.1c-0.3,1.3-0.4,2.6-0.5,3.6c0,0.5-0.1,1,0,1.5c0,0.5,0.1,0.9,0.1,1.3
										c0.2,1.5,0.4,2.4,0.4,2.4s0.9-0.3,2.2-0.9c0.3-0.1,0.7-0.3,1.1-0.5c0.4-0.2,0.8-0.3,1.3-0.5c0.9-0.3,1.8-0.8,2.9-1.1
										c0.5-0.2,1-0.4,1.6-0.6c0.5-0.2,1.1-0.4,1.7-0.6c1.1-0.4,2.3-0.8,3.4-1.3c2.4-0.9,4.8-2,7.2-3.5c2.4-1.5,4.6-3.3,6.6-5.3
										c2-1.9,3.8-4,5.3-5.9c1.5-1.9,2.7-3.6,3.5-4.9c0.8-1.3,1.2-2,1.2-2s-0.8-0.3-2.3-0.7c-1.4-0.4-3.5-0.8-6-1
										C492.8,666.1,489.9,666.1,486.7,666.6z"/>
								</g>
							</g>
						</g>
					</g>
				</g>
				<g>
					<g>
						<g>
							<g>
								<g>
									<path fill="#01BAB5" d="M471.2,815.7c-0.4-0.2-0.8-0.4-1.2-0.6l-0.6-0.3c-0.2-0.1-0.3-0.2-0.7-0.3
										c-1.3-0.4-2.4-0.6-3.5-0.6c-4.4-0.3-8.1,1.7-11,3.4c-1.4,0.8-2.7,1.6-3.7,2c-0.5,0.2-0.9,0.3-1.2,0.4
										c-0.3,0.1-0.5,0.1-0.5,0.1s0,0.2,0,0.5c0,0.3,0.1,0.9,0.3,1.5c0.4,1.3,1.5,2.9,2.9,4.5c2.9,3.1,7.4,5.9,12,6.2
										c1.1,0.1,2.3,0,3.1-0.2c0.2-0.1,0.6-0.1,0.9-0.1c0.3,0,0.7-0.1,1-0.2c0.6-0.1,1.2-0.3,1.8-0.5c2.3-0.8,4.1-2.1,5.6-3.3
										c1.4-1.2,2.6-2.4,3.4-3.3c0.8-0.9,1.3-1.5,1.3-1.5s-0.5-0.6-1.3-1.4c-0.9-0.9-2.1-2-3.7-3.1
										C474.5,817.7,472.8,816.6,471.2,815.7z"/>
								</g>
							</g>
						</g>
					</g>
				</g>
				<g>
					<g>
						<g>
							<g>
								<g>
									<path fill="#01BAB5" d="M524.5,911.2c-2.9,2.5-6,6.3-6.4,11.3c-0.5,5,2,10,5.1,13.1c1.5,1.6,3.2,2.5,4.5,2.9
										c0.6,0.2,1.1,0.3,1.5,0.3c0.3,0,0.5,0,0.5,0s0-0.2,0.1-0.5c0.1-0.3,0.2-0.8,0.4-1.3c0.4-1,1.2-2.2,2.1-3.5
										c1.8-2.6,4-5.6,4.4-9.4c0.3-3.8-1.3-7.8-3-11c-1.7-3.2-3.5-5.5-3.5-5.5S527.4,908.8,524.5,911.2z"/>
								</g>
							</g>
						</g>
					</g>
				</g>
				<g>
					<g>
						<g>
							<g>
								<g>
									<path fill="#01BAB5" d="M578.9,976.8c-0.5-0.2-1-0.3-1.6-0.5c-0.6-0.2-1.2-0.2-1.8-0.3c-0.6-0.1-1.4-0.2-2.1-0.2
										c-0.7,0-1.4,0-2.2,0c-0.4,0-0.8,0-1.2,0.1c-0.4,0.1-0.8,0.1-1.1,0.2c-0.8,0.1-1.6,0.3-2.4,0.4c-3.2,0.8-6.3,2.2-9.1,4.3
										c-2.7,2.1-4.8,4.6-6.3,7.1c-1.5,2.5-2.5,5-3.3,7.2c-0.7,2.2-1.2,4.1-1.5,5.5c-0.3,1.4-0.4,2.2-0.4,2.2s0.8,0,2.3,0
										c1.4-0.1,3.5-0.3,5.8-0.8c2.3-0.5,4.9-1.3,7.4-2.3c2.5-1,5-2.4,7.2-4.1c2.2-1.7,3.9-3.5,5.5-5.4c0.4-0.4,0.7-0.9,1.1-1.4
										c0.2-0.2,0.4-0.5,0.5-0.7c0.2-0.2,0.3-0.4,0.5-0.6c0.3-0.4,0.7-0.9,1-1.3c0.3-0.4,0.7-0.8,1-1.2c0.3-0.4,0.6-0.8,0.9-1.2
										c0.3-0.4,0.6-0.7,0.9-1c0.3-0.3,0.6-0.7,0.8-1c0.3-0.3,0.5-0.5,0.8-0.8c1-1,1.6-1.6,1.6-1.6s-0.6-0.5-1.9-1.3
										c-0.3-0.2-0.7-0.4-1.1-0.6C579.8,977.2,579.4,977,578.9,976.8z"/>
								</g>
							</g>
						</g>
					</g>
				</g>
				<g>
					<g>
						<g>
							<g>
								<g>
									<path fill="#01BAB5" d="M338.4,859c-2-0.6-4.3-0.9-6.7-0.7c-2.4,0.2-4.9,0.9-7.1,2.2c-4.4,2.7-6.7,7.4-7.6,11.2
										c-0.5,1.9-0.6,3.6-0.6,4.9c0,1.2,0.1,2,0.1,2s0.7,0.1,1.9,0.1c1.2,0.1,2.8,0.1,4.6,0.1c3.6,0,7.9-0.3,11.2-2.4
										c3.4-2,5.4-5.6,7.2-8.6c1.8-3.2,3.1-5.6,3.1-5.6s-0.5-0.5-1.6-1.2c-0.5-0.3-1.2-0.7-1.9-1
										C340.3,859.6,339.4,859.3,338.4,859z"/>
								</g>
							</g>
						</g>
					</g>
				</g>
				<g>
					<g>
						<g>
							<g>
								<g>
									<path fill="#01BAB5" d="M372.2,853.8c0-0.7,0-1.3-0.1-2c-0.1-1.3-0.3-2.7-0.6-4c-1.3-5.3-4.1-9.5-6.3-13
										c-1.1-1.7-2.1-3.2-2.7-4.5c-0.6-1.2-1-2-1-2s-0.7,0.4-1.9,1.3c-1.1,1-2.6,2.6-3.7,4.8c-2.5,4.4-4,11.1-2.5,17.5
										c0.4,1.6,0.9,3.1,1.6,4.5c0.3,0.7,0.7,1.4,1.1,2c0.4,0.6,0.8,1.3,1.2,1.8c1.6,2.1,3.5,4.5,5.5,6.1c2,1.7,4.1,2.7,5.6,3.1
										c0.8,0.2,1.4,0.2,1.8,0.2c0.4,0,0.6-0.1,0.6-0.1s0-0.2-0.1-0.6c-0.1-0.4-0.1-0.9-0.1-1.5c0-1.3,0.3-2.9,0.8-4.9
										c0.4-2,0.9-4.1,1-7C372.2,855.1,372.2,854.5,372.2,853.8z"/>
								</g>
							</g>
						</g>
					</g>
				</g>
				<g>
					<g>
						<g>
							<g>
								<g>
									<path fill="#01BAB5" d="M863.5,595.8c-0.3-1.4-0.8-2.8-1.3-4c-0.4-1.2-1-2.3-1.5-3.2c-0.5-0.9-1-1.7-1.5-2.2
										c-0.9-1.2-1.5-1.8-1.5-1.8s-0.6,0.7-1.4,1.9c-0.4,0.6-0.9,1.3-1.5,2c-0.6,0.8-1.1,1.6-1.8,2.5c-2.6,3.7-5.8,7.9-7.7,13.4
										c-1.9,5.4-2.1,11.3-1.9,16.1c0.1,2.4,0.4,4.4,0.6,5.8c0.2,1.4,0.4,2.3,0.4,2.3s0.8-0.3,2.1-0.9c1.3-0.6,3.2-1.6,5.2-3
										c4-2.8,8.8-7.4,11.1-14.1c1.2-3.3,1.5-6.8,1.3-10.1c-0.1-0.8-0.1-1.6-0.2-2.4C863.9,597.3,863.7,596.5,863.5,595.8z"/>
								</g>
							</g>
						</g>
					</g>
				</g>
				<g>
					<g>
						<g>
							<g>
								<g>
									<path fill="#01BAB5" d="M922.5,536.6c-0.5-0.9-1-1.7-1.5-2.5c-1-1.6-2.1-3.1-3.2-4.3c-2.1-2.5-4.1-4.4-5.5-5.6
										c-1.4-1.2-2.3-1.8-2.3-1.8s-0.2,1.1-0.4,2.9c-0.2,1.8-0.4,4.5-0.6,7.5c-0.1,1.5-0.1,3.2-0.2,4.9c0,0.9,0,1.8-0.1,2.7
										c0,0.9,0,1.8,0,2.8c0,3.8,0.2,7.8,0.7,12c1.1,8.3,3.6,16.2,6,22c1.2,2.9,2.4,5.3,3.2,7c0.9,1.7,1.5,2.6,1.5,2.6
										s0.6-0.9,1.5-2.6c0.9-1.7,2-4.1,3.2-7.1c1.1-3,2.2-6.7,2.9-10.8c0.6-4.1,0.9-8.7,0.3-13.5c-0.6-4.8-2.1-9.3-3.9-13.2
										C923.4,538.5,922.9,537.5,922.5,536.6z"/>
								</g>
							</g>
						</g>
					</g>
				</g>
				<g>
					<g>
						<g>
							<g>
								<g>
									<path fill="#01BAB5" d="M963,451.5c-2.3,1.4-4.9,3.3-7.3,5.7c-2.4,2.4-4.8,5.5-6.5,9.1c-1.7,3.6-2.6,7.5-2.9,11.1
										c-0.1,1.8-0.1,3.5,0.1,5.2c0.1,1.6,0.4,3.2,0.8,4.5c0.3,1.4,0.8,2.6,1.2,3.7c0.4,1.1,0.8,2,1.2,2.7
										c0.8,1.4,1.3,2.2,1.3,2.2s0.6-0.7,1.6-1.9c1-1.2,2.3-2.9,3.9-4.9c0.8-1,1.6-2,2.4-3.1c0.8-1.1,1.7-2.2,2.5-3.5
										c1.7-2.4,3.4-5,4.8-8c1.4-3,2.4-6.1,3.2-9.1c0.8-3,1.3-6,1.6-8.6c0.3-2.6,0.4-4.8,0.5-6.4c0-1.6,0-2.5,0-2.5
										s-0.9,0.3-2.4,0.9C967.3,449.2,965.3,450.1,963,451.5z"/>
								</g>
							</g>
						</g>
					</g>
				</g>
				<g>
					<g>
						<g>
							<g>
								<g>
									<path fill="#01BAB5" d="M915.9,624.6c-1.3,0.2-3.2,0.5-5.2,1.3c-4.1,1.4-9.1,4.3-12.2,9.5c-3,5.1-3.4,11.6-1.9,16.5
										c0.7,2.4,2,4.4,3.1,5.3c0.6,0.4,1.1,0.7,1.4,0.9c0.4,0.2,0.5,0.2,0.5,0.2s0.1-0.2,0.2-0.5c0.1-0.3,0.3-0.8,0.7-1.3
										c0.7-1,1.8-1.9,3.2-3c2.8-2.1,6.4-4.6,8.8-8.7c2.4-4.1,3.2-9.1,3.4-13.1c0.1-2,0.1-3.8,0.1-5.1c0-1.3,0-2.1,0-2.1
										S917.3,624.5,915.9,624.6z"/>
								</g>
							</g>
						</g>
					</g>
				</g>
				<g>
					<g>
						<g>
							<g>
								<g>
									<path fill="#01BAB5" d="M912,715.8c0-1.5-0.1-2.4-0.1-2.4s-0.8,0.2-2.3,0.8c-0.7,0.3-1.6,0.7-2.5,1.2c-1,0.5-2,1.1-3,1.9
										c-2.2,1.5-4.4,3.6-6.5,6.2c-2,2.6-3.8,5.8-4.8,9.4c-1,3.6-1.2,7.4-0.8,10.8c0.1,0.8,0.3,1.7,0.4,2.5
										c0.2,0.8,0.3,1.6,0.6,2.4c0.5,1.5,1,2.9,1.7,4.2c0.3,0.6,0.7,1.2,1,1.7c0.3,0.5,0.7,1,1.1,1.5c0.7,0.9,1.3,1.6,2,2.1
										c1.2,1,2,1.5,2,1.5s0.3-0.8,0.8-2.2c0.2-0.6,0.6-1.5,1-2.3c0.2-0.4,0.4-0.8,0.6-1.3c0.2-0.5,0.5-0.9,0.8-1.4
										c2.1-3.9,5-8.5,6.6-14.2c0.8-2.8,1.2-5.7,1.4-8.5c0.2-2.8,0.2-5.5,0.2-7.8c0-1.2-0.1-2.3-0.1-3.3
										C912.1,717.4,912.1,716.5,912,715.8z"/>
								</g>
							</g>
						</g>
					</g>
				</g>
				<g>
					<g>
						<g>
							<g>
								<g>
									<path fill="#01BAB5" d="M874.7,703.5c-2.6-2-5.7-3.4-9.1-4.1c-6.7-1.4-12.9,0.7-17,3c-2.1,1.2-3.7,2.4-4.7,3.3
										c-1.1,0.9-1.6,1.6-1.6,1.6s0.7,0.5,1.8,1.3c1.1,0.8,2.7,1.9,4.5,3.1c3.7,2.4,8.4,4.9,13.3,6c5,1,9.4,0.3,13.2,0.1
										c1.9-0.1,3.6,0,4.9,0.3c0.7,0.1,1.2,0.2,1.5,0.3c0.4,0.1,0.6,0.1,0.6,0.1s0-0.2,0.1-0.6c0-0.4,0.1-1,0.1-1.7
										c-0.1-1.5-0.5-3.7-1.8-6C879.4,707.9,877.3,705.5,874.7,703.5z"/>
								</g>
							</g>
						</g>
					</g>
				</g>
				<g>
					<g>
						<g>
							<g>
								<g>
									<path fill="#01BAB5" d="M507.3,552.5c-1.6-1.9-3.2-3.4-4.4-4.3c-1.2-0.9-1.9-1.4-1.9-1.4s-0.4,0.8-0.9,2.2
										c-0.5,1.4-1.2,3.3-1.9,5.6c-0.7,2.3-1.4,4.8-1.8,7.5c-0.5,2.7-0.8,5.5-0.7,8.4c0.1,2.9,0.6,5.7,1.2,8.3
										c0.6,2.6,1.5,5.1,2.2,7.3c0.4,1.1,0.8,2.1,1.1,3.1c0.3,0.9,0.7,1.8,0.9,2.4c0.5,1.4,0.9,2.2,0.9,2.2s0.7-0.5,1.9-1.4
										c0.6-0.5,1.3-1.1,2-1.8c0.7-0.7,1.6-1.6,2.3-2.6c1.6-2,3.2-4.6,4.3-7.7c1.1-3.1,1.8-6.6,1.7-10.3
										c-0.1-3.7-1.1-7.1-2.4-10.1C510.6,556.9,509,554.5,507.3,552.5z"/>
								</g>
							</g>
						</g>
					</g>
				</g>
				<g>
					<g>
						<g>
							<g>
								<g>
									<path fill="#01BAB5" d="M411.5,530.6c-0.2-0.8-0.4-1.6-0.6-2.5c-0.3-0.8-0.6-1.6-1-2.5c-1.5-3.3-3.9-6.5-6.8-8.9
										c-2.9-2.4-5.9-3.9-8.7-4.9c-2.8-1-5.5-1.5-7.8-1.9c-2.3-0.4-4.4-0.6-5.8-0.8c-1.5-0.2-2.4-0.2-2.4-0.2s0.1,0.9,0.4,2.4
										c0.3,1.5,0.9,3.6,2,5.9c1,2.3,2.5,4.9,4.4,7.3c1.8,2.4,3.9,4.7,6.1,6.5c2.2,1.8,4.3,3.2,6.4,4.4c0.5,0.3,1,0.6,1.6,0.9
										c0.5,0.3,1,0.6,1.5,0.9c0.3,0.1,0.5,0.3,0.8,0.4c0.2,0.2,0.5,0.3,0.7,0.5c0.5,0.3,1,0.6,1.4,0.9c1.8,1.2,3.5,2.4,4.6,3.3
										c1.1,0.9,1.9,1.4,1.9,1.4s0.4-0.8,0.9-2.2c0.5-1.5,1-3.6,1.1-6.4c0-0.7-0.1-1.4-0.1-2.2c0-0.4-0.1-0.8-0.1-1.2
										C411.7,531.4,411.6,531,411.5,530.6z"/>
								</g>
							</g>
						</g>
					</g>
				</g>
				<g>
					<g>
						<g>
							<g>
								<g>
									<path fill="#01BAB5" d="M330.1,542.3c0.1-0.4,0.1-0.6,0.1-0.6s-0.2,0-0.6,0c-0.4,0-1.1,0.1-1.8,0.3c-1.6,0.4-3.9,1.6-6,3.9
										c-2.1,2.3-3.8,5.6-4.7,9.2c-0.9,3.7-1,7.6-0.1,11.5c1.7,7.8,6.8,13.4,11.2,16.4c2.2,1.6,4.3,2.5,5.8,3
										c0.7,0.3,1.3,0.4,1.8,0.5c0.4,0.1,0.6,0.1,0.6,0.1s0-0.2,0-0.6c0-0.4-0.1-1-0.1-1.7c0-1.5,0-3.5,0-5.8
										c0.1-4.6,0.1-10.4-1.1-15.9c-1.2-5.5-3.5-9.8-4.6-13.5c-0.6-1.9-0.8-3.7-0.7-5.1C329.9,543.3,330.1,542.7,330.1,542.3z"/>
								</g>
							</g>
						</g>
					</g>
				</g>
				<g>
					<g>
						<g>
							<g>
								<g>
									<path fill="#01BAB5" d="M311.5,579.1c-0.3-0.9-0.6-1.8-0.8-2.5c-0.5-1.4-0.8-2.2-0.8-2.2s-0.7,0.5-1.9,1.4
										c-0.6,0.5-1.3,1.1-2.1,1.8c-0.8,0.7-1.6,1.6-2.4,2.5c-1.7,2-3.3,4.5-4.7,7.4c-1.3,3-2.2,6.4-2.3,10.2
										c-0.1,3.7,0.7,7.3,1.9,10.5c0.7,1.6,1.3,3,2.2,4.3c0.4,0.7,0.8,1.3,1.2,1.9c0.4,0.6,0.9,1.1,1.3,1.6c0.8,1,1.7,1.9,2.6,2.6
										c0.4,0.4,0.8,0.7,1.1,0.9c0.4,0.3,0.7,0.5,1.1,0.7c1.3,0.8,2.1,1.2,2.1,1.2s0.3-0.9,0.6-2.3c0.1-0.3,0.2-0.7,0.3-1.1
										c0.1-0.4,0.2-0.9,0.4-1.3c0.3-0.9,0.5-2,0.9-3.1c0.2-0.5,0.3-1.1,0.5-1.7c0.2-0.6,0.4-1.2,0.5-1.8c0.3-1.2,0.7-2.5,0.9-3.7
										c0.6-2.6,1.1-5.3,1.1-8.2c0.1-2.9-0.2-5.7-0.7-8.4c-0.5-2.7-1.2-5.3-1.8-7.5C312.1,581.1,311.8,580.1,311.5,579.1z"/>
								</g>
							</g>
						</g>
					</g>
				</g>
				<g>
					<g>
						<g>
							<g>
								<g>
									<path fill="#01BAB5" d="M454.4,608.9c-1.6-2.8-3.8-5.7-6.7-8.1c-2.9-2.4-6.3-4.1-9.6-5.2c-0.8-0.3-1.6-0.5-2.4-0.7
										c-0.8-0.2-1.6-0.3-2.4-0.4c-1.5-0.2-3-0.3-4.4-0.3c-1.3,0-2.6,0.2-3.6,0.3c-1.1,0.1-2,0.4-2.7,0.6
										c-1.5,0.4-2.3,0.8-2.3,0.8s0.5,0.8,1.4,2c0.4,0.6,1,1.3,1.5,2.1c0.6,0.8,1.3,1.7,1.9,2.7c0.7,0.9,1.4,1.9,2.2,3
										c0.4,0.5,0.8,1,1.2,1.6c0.4,0.5,0.8,1.1,1.3,1.6c1.7,2.1,3.7,4.2,6,6.2c2.3,2,4.9,3.6,7.5,4.9c2.6,1.4,5.2,2.5,7.5,3.3
										c2.3,0.8,4.4,1.4,5.9,1.8c1.5,0.4,2.4,0.5,2.4,0.5s0-0.9-0.2-2.4c-0.2-1.5-0.5-3.7-1.2-6.1
										C457,614.5,455.9,611.7,454.4,608.9z"/>
								</g>
							</g>
						</g>
					</g>
				</g>
				<g>
					<g>
						<g>
							<g>
								<g>
									<path fill="#01BAB5" d="M457.9,917.5c-3.1-0.7-6.7-1-10.4-0.4c-3.7,0.6-7.3,1.9-10.3,3.7c-0.8,0.5-1.5,1-2.1,1.5
										c-0.3,0.3-0.7,0.5-1,0.7c-0.3,0.3-0.6,0.5-0.9,0.8c-0.6,0.5-1.2,1.1-1.7,1.6c-0.5,0.6-1,1.1-1.4,1.7
										c-0.4,0.6-0.8,1.1-1.1,1.6c-0.3,0.6-0.6,1.1-0.9,1.6c-0.3,0.5-0.5,1-0.7,1.4c-0.2,0.4-0.3,0.9-0.4,1.2
										c-0.5,1.5-0.6,2.4-0.6,2.4s0.9,0,2.4-0.1c0.4,0,0.7,0,1.2,0c0.4,0,0.9,0,1.4,0c0.5,0,1,0,1.5,0c0.5,0,1.1,0.1,1.6,0.1
										c0.5,0,1.1,0.1,1.7,0.1c0.6,0.1,1.2,0.1,1.8,0.1c0.3,0,0.6,0,0.9,0c0.3,0,0.6,0.1,1,0.1c0.6,0.1,1.3,0.1,1.9,0.1
										c2.6,0.1,5.4,0.1,8.4-0.3c3-0.4,5.9-1.2,8.6-2.3c2.7-1,5.3-2.3,7.4-3.4c2.2-1.2,4-2.4,5.2-3.2c1.2-0.9,1.9-1.5,1.9-1.5
										s-0.7-0.6-1.9-1.4c-1.2-0.9-3.1-2-5.3-3.2C463.8,919.3,461.1,918.2,457.9,917.5z"/>
								</g>
							</g>
						</g>
					</g>
				</g>
				<g>
					<g>
						<g>
							<g>
								<g>
									<path fill="#01BAB5" d="M590.4,751.2c-4.7-3.3-12.2-5.4-19.5-4c-7.4,1.4-13.1,5.8-16.5,9.8c-1.7,2-2.9,3.9-3.5,5.3
										c-0.3,0.7-0.6,1.3-0.7,1.7c-0.1,0.4-0.2,0.6-0.2,0.6s0.2,0,0.6,0.1c0.4,0,1,0.1,1.7,0.2c1.4,0.2,3.4,0.4,5.7,0.7
										c4.6,0.5,10.4,1.1,16.2,0c5.7-1.1,10.5-3.6,14.4-5.2c1.9-0.8,3.7-1.4,5.1-1.7c0.7-0.1,1.3-0.2,1.6-0.2c0.4,0,0.6,0,0.6,0
										s0-0.2-0.2-0.6c-0.1-0.4-0.3-1-0.7-1.7C594.4,754.7,592.8,752.8,590.4,751.2z"/>
								</g>
							</g>
						</g>
					</g>
				</g>
				<g>
					<g>
						<g>
							<g>
								<g>
									<path fill="#01BAB5" d="M600.6,824.3c-0.9-1-1.4-1.5-1.4-1.5s-0.6,0.5-1.5,1.5c-0.9,1-2,2.4-3.1,4.2
										c-2.2,3.6-4.3,8.6-4.3,13.3c0,2.4,0.4,4.5,1,6.5c0.6,2,1.4,3.9,2.1,5.7c0.7,1.8,1.4,3.4,1.8,4.6c0.5,1.2,0.8,1.9,0.8,1.9
										s0.7-0.2,1.9-0.9c0.6-0.3,1.3-0.7,2-1.2c0.7-0.5,1.6-1.2,2.4-2c1.6-1.6,3.3-3.7,4.5-6.2c1.2-2.5,2-5.4,2-8.3
										c0-2.9-0.7-5.5-1.6-7.8c-1-2.3-2.2-4.3-3.4-5.9C602.6,826.6,601.4,825.3,600.6,824.3z"/>
								</g>
							</g>
						</g>
					</g>
				</g>
				<g>
					<g>
						<g>
							<g>
								<g>
									<path fill="#01BAB5" d="M805.5,521.4c-2-2.3-4.3-3.7-6.4-4.6c-1.1-0.5-2.1-0.9-3.1-1.2c-1-0.3-2-0.6-3-0.8
										c-3.9-1-6.8-1.7-6.8-1.7s-0.2,0.7-0.4,2.1c-0.1,0.7-0.2,1.5-0.2,2.4c0,0.9,0,2,0.2,3.1c0.1,1.1,0.4,2.3,0.7,3.5
										c0.3,1.2,0.8,2.4,1.3,3.6c1,2.3,2.3,4.5,3.8,6.1c1.5,1.7,3,2.7,4.5,3.6c0.4,0.2,0.7,0.5,1.2,0.7c0.4,0.2,0.8,0.5,1.1,0.7
										c0.8,0.4,1.5,1,2.2,1.5c1.4,1,2.7,2.2,3.6,3.1c0.9,0.9,1.5,1.5,1.5,1.5s0.6-0.5,1.4-1.5c0.9-1,1.9-2.7,2.6-5
										c0.3-1.2,0.6-2.5,0.6-3.9c0-0.7,0-1.5-0.1-2.2c-0.1-0.7-0.2-1.5-0.4-2.3C809,526.7,807.5,523.7,805.5,521.4z"/>
								</g>
							</g>
						</g>
					</g>
				</g>
				<g>
					<g>
						<g>
							<g>
								<g>
									<path fill="#01BAB5" d="M892.6,427.8c-1-0.9-2.2-1.8-3.5-2.6c-1.3-0.8-2.8-1.6-4.4-2.3c-3.2-1.3-7-2.3-11.2-2.3
										c-4.2,0.1-8.2,1.2-11.5,2.8c-0.8,0.4-1.6,0.9-2.4,1.3c-0.8,0.4-1.4,1-2.1,1.5c-1.3,1-2.4,2.1-3.4,3.2
										c-0.2,0.3-0.5,0.5-0.7,0.8c-0.2,0.3-0.4,0.5-0.6,0.8c-0.4,0.5-0.7,1-1,1.5c-0.6,0.9-1,1.8-1.4,2.5
										c-0.7,1.5-0.9,2.3-0.9,2.3s0.9,0.1,2.5,0.1c0.8,0,1.6,0,2.7,0.1c0.5,0,1,0.1,1.6,0.1c0.3,0,0.5,0,0.8,0
										c0.3,0,0.6,0.1,0.9,0.1c1.2,0.1,2.4,0.2,3.7,0.4c0.6,0.1,1.3,0.1,1.9,0.2c0.7,0.1,1.3,0.2,2,0.2c2.6,0.3,5.3,0.5,8.2,0.5
										c2.9,0,5.8-0.3,8.6-0.8c1.4-0.2,2.8-0.5,4.1-0.8c1.3-0.3,2.6-0.6,3.8-0.9c2.4-0.6,4.5-1.2,6-1.6c1.5-0.5,2.3-0.8,2.3-0.8
										s-0.5-0.8-1.5-2C896.1,431.1,894.6,429.5,892.6,427.8z"/>
								</g>
							</g>
						</g>
					</g>
				</g>
				<g>
					<g>
						<g>
							<g>
								<g>
									<path fill="#01BAB5" d="M424.5,1271.4c-0.9-1.1-1.9-1.9-2.8-2.7c-0.9-0.8-1.7-1.4-2.4-1.9c-1.4-1-2.2-1.4-2.2-1.4
										s-0.2,1-0.5,2.6c-0.1,0.8-0.3,1.8-0.5,2.9c-0.2,1.1-0.3,2.3-0.5,3.6c-0.3,2.6-0.6,5.6-0.7,8.9c0,3.3,0.2,6.8,1,10.4
										c1.6,7.3,5.3,13.8,8.8,18.2c1.8,2.2,3.4,3.9,4.7,5c1.2,1.1,2,1.7,2,1.7s0.3-0.9,0.8-2.5c0.4-1.6,1-3.8,1.6-6.4
										c1.1-5.3,2-12.3,0.4-19.9c-0.8-3.8-2.3-7.4-4-10.5C428.5,1276.2,426.5,1273.5,424.5,1271.4z"/>
								</g>
							</g>
						</g>
					</g>
				</g>
				<g>
					<g>
						<g>
							<g>
								<g>
									<path fill="#01BAB5" d="M378,1271.9c-1.6-1.2-3.5-2.5-5.4-3.6c-2-1.1-4-2-6.1-2.5c-2.2-0.5-4.3-0.6-6.5-0.5
										c-2.2,0.1-4.3,0.4-6.3,0.7c-2,0.3-3.7,0.7-5,0.9c-1.3,0.3-2,0.5-2,0.5s0.2,0.8,0.6,2c0.4,1.3,1.1,3,2.3,4.9
										c1.1,1.9,2.7,3.9,4.9,5.7c2.1,1.7,4.8,3.2,7.8,3.9c3,0.7,6,0.6,8.6,0c2.6-0.6,4.9-1.6,6.8-2.7c1.9-1.1,3.3-2.2,4.3-3.1
										c1-0.9,1.5-1.4,1.5-1.4s-0.5-0.6-1.5-1.5C381,1274.3,379.6,1273.1,378,1271.9z"/>
								</g>
							</g>
						</g>
					</g>
				</g>
				<g>
					<g>
						<g>
							<g>
								<g>
									<path fill="#01BAB5" d="M251.1,1135.4c-0.4-0.4-0.9-0.8-1.3-1.2c-0.4-0.4-0.9-0.7-1.3-1.1c-1.7-1.3-3.5-2.4-5.1-3.2
										c-3.3-1.7-6.2-2.6-8.8-3.4c-2.5-0.8-4.7-1.5-6.2-2.1c-0.8-0.3-1.4-0.5-1.8-0.7c-0.4-0.2-0.7-0.3-0.7-0.3s0,0.2,0,0.7
										c0,0.5,0,1.2,0.1,2c0.2,1.8,0.8,4.3,2.1,7.1c1.2,2.8,3,5.8,4.9,8.6c1,1.4,1.9,2.7,2.8,4c0.8,1.2,1.7,2.4,2.6,3.6
										c1.9,2.5,4,5,6.2,7.5c2.2,2.4,4.4,4.7,6.5,6.6c2.1,1.9,3.9,3.4,5.3,4.4c1.4,1,2.2,1.5,2.2,1.5s0.2-1,0.5-2.6
										c0.3-1.7,0.6-4,0.6-6.9c0.1-2.9-0.1-6.3-1-10c-0.9-3.7-2.5-7.8-5.3-11.6C252.8,1137.2,251.9,1136.2,251.1,1135.4z"/>
								</g>
							</g>
						</g>
					</g>
				</g>
				<g>
					<g>
						<g>
							<g>
								<g>
									<path fill="#01BAB5" d="M224,1152c0,0-0.8,0.5-2,1.4c-0.6,0.4-1.4,0.9-2.3,1.4c-0.4,0.2-0.9,0.5-1.3,0.8
										c-0.5,0.3-1,0.5-1.5,0.8c-2,1.1-4.4,2.2-6.8,3.6c-2.4,1.3-4.9,2.7-7.3,4.5c-2.4,1.7-4.6,3.6-6.6,5.5
										c-2,1.8-3.8,3.8-5.6,5.3c-0.4,0.4-0.9,0.8-1.3,1.2c-0.4,0.4-0.8,0.7-1.2,1c-0.8,0.7-1.5,1.3-2.1,1.7c-1.2,0.9-2,1.5-2,1.5
										s0.7,0.6,2.1,1.4c0.7,0.5,1.6,0.9,2.7,1.2c0.5,0.2,1.1,0.4,1.8,0.6c0.6,0.2,1.3,0.3,2,0.4c2.9,0.6,6.3,0.6,10-0.1
										c3.6-0.7,7.4-2.2,10.8-4.7c3.4-2.5,6-5.6,7.9-8.8c1.8-3.3,2.9-6.5,3.3-9.4c0.1-0.7,0.2-1.4,0.2-2c0-0.7,0-1.3,0-1.9
										c0-1.2-0.1-2.1-0.3-3C224.3,1152.8,224,1152,224,1152z"/>
								</g>
							</g>
						</g>
					</g>
				</g>
				<g>
					<g>
						<g>
							<g>
								<g>
									<path fill="#01BAB5" d="M372.9,1342.2c-0.1-1.9-0.3-4.1-0.9-6.4c-0.6-2.3-1.6-4.7-3.3-7c-1.8-2.3-4.3-4.3-6.9-5.6
										c-0.7-0.3-1.3-0.6-2-0.9c-0.7-0.2-1.3-0.4-2-0.6c-0.6-0.2-1.3-0.3-1.9-0.4c-0.6-0.1-1.2-0.1-1.8-0.2
										c-2.3-0.1-4.2,0.3-5.5,0.7c-1.3,0.4-2,0.7-2,0.7s0.3,0.8,0.8,1.9c0.5,1.1,1.1,2.8,1.7,4.5c0.1,0.4,0.3,0.9,0.4,1.3
										c0.2,0.4,0.3,0.9,0.4,1.4c0.1,0.5,0.3,0.9,0.5,1.4c0.1,0.5,0.3,0.9,0.5,1.4c0.7,1.9,1.5,3.7,2.9,5.5c1.4,1.9,3.3,3.5,5.4,5
										c2.1,1.4,4.4,2.5,6.5,3.2c1,0.3,2.1,0.6,2.9,0.7c0.9,0.2,1.7,0.2,2.4,0.3c1.3,0.1,2.1,0,2.1,0s0-0.8-0.1-2.1
										c0-0.6-0.1-1.4-0.1-2.2C373,1344.1,372.9,1343.2,372.9,1342.2z"/>
								</g>
							</g>
						</g>
					</g>
				</g>
				<g>
					<g>
						<g>
							<g>
								<g>
									<path fill="#01BAB5" d="M350.7,1356.4c0,0-0.7,0.5-1.9,1.3c-1.2,0.8-2.8,2-4.6,3.5c-3.6,2.9-8,6.6-11,10.8
										c-1.5,2.1-2.6,4.1-3.5,5.9c-0.9,1.8-1.7,3.5-2.8,5c-1.1,1.4-2.5,2.6-3.7,3.2c-0.6,0.4-1.1,0.5-1.5,0.7
										c-0.4,0.2-0.6,0.3-0.6,0.3s0.1,0.2,0.3,0.5c0.2,0.3,0.6,0.8,1.2,1.4c1.1,1.1,3.2,2.5,6.3,3c3.1,0.5,7,0,10.4-1.7
										c3.5-1.6,6.6-4.2,8.9-7.4c2.3-3.1,3.6-6.5,4.2-9.7c0.6-3.2,0.7-6.1,0.4-8.7c-0.2-2.5-0.8-4.6-1.2-6
										C351.1,1357.2,350.7,1356.4,350.7,1356.4z"/>
								</g>
							</g>
						</g>
					</g>
				</g>
				<g>
					<g>
						<g>
							<g>
								<g>
									<path fill="#01BAB5" d="M228.2,1245.1c-0.8-2.1-2.2-4.1-3.9-5.4c-1.8-1.3-3.8-1.9-5.6-2.1c-1.9-0.2-3.7,0.1-5.3,0.5
										c-1.6,0.4-3,0.8-4.1,1.2c-1,0.4-1.7,0.6-1.7,0.6s0,0.7,0,1.8c0.1,1.1,0.3,2.6,0.7,4.3c0.4,1.7,1,3.4,1.8,4.9
										c0.8,1.5,1.7,2.9,2.9,3.7c1.2,0.9,2.4,1.2,3.8,1.4c0.3,0,0.7,0.1,1.1,0.1c0.4,0,0.7,0.1,1.1,0.1c0.8,0,1.5,0.1,2.2,0.2
										c1.5,0.1,2.9,0.3,4,0.5c1.1,0.2,1.8,0.3,1.8,0.3s0.4-0.5,0.9-1.6c0.5-1,1-2.5,1.2-4.4c0.1-0.9,0.1-2-0.1-3
										c-0.1-0.5-0.2-1.1-0.3-1.6C228.6,1246.2,228.4,1245.6,228.2,1245.1z"/>
								</g>
							</g>
						</g>
					</g>
				</g>
				<g>
					<g>
						<g>
							<g>
								<g>
									<path fill="#01BAB5" d="M186.5,1246.2c-0.9-4.3-3.4-8.4-5.6-11.7c-1.1-1.7-2.1-3.1-2.8-4.2c-0.7-1.1-1.2-1.7-1.2-1.7
										s-0.2,0.1-0.5,0.3c-0.3,0.2-0.7,0.5-1.2,1c-1,0.9-2.4,2.3-3.6,4.2c-2.5,3.8-4.6,9.6-3.3,15.9c1.3,6.3,6,11.6,10.7,13.7
										c2.3,1.1,4.5,1.3,6,1.2c0.7-0.1,1.2-0.2,1.6-0.3c0.4-0.1,0.5-0.2,0.5-0.2s-0.1-0.2-0.2-0.5c-0.1-0.3-0.3-0.8-0.4-1.4
										c-0.3-1.2-0.4-2.8-0.2-4.5C186.6,1254.6,187.5,1250.6,186.5,1246.2z"/>
								</g>
							</g>
						</g>
					</g>
				</g>
				<g>
					<g>
						<g>
							<g>
								<g>
									<path fill="#01BAB5" d="M122.3,1164.5c-4-2.7-10.1-5-16.6-4c-6.5,0.9-12,4.9-15.1,9c-1.5,2.1-2.4,4.2-2.6,5.7
										c-0.1,0.8-0.1,1.3-0.1,1.7c0,0.4,0.1,0.6,0.1,0.6s0.2,0,0.6-0.1c0.3-0.1,0.9-0.1,1.5-0.2c1.3,0,2.9,0.2,4.7,0.6
										c3.8,0.7,8.5,1.8,13.5,1.1c5-0.7,9.5-3.1,13.1-5.1c1.8-1,3.3-1.9,4.5-2.5c0.6-0.3,1.1-0.5,1.4-0.7c0.3-0.2,0.5-0.2,0.5-0.2
										s-0.1-0.2-0.3-0.5c-0.2-0.3-0.5-0.8-0.9-1.4C125.8,1167.3,124.3,1165.9,122.3,1164.5z"/>
								</g>
							</g>
						</g>
					</g>
				</g>
				<g>
					<g>
						<g>
							<g>
								<g>
									<path fill="#01BAB5" d="M146.1,1221.6c-0.6-0.8-1.4-1.6-2.2-2.4c-1.7-1.6-3.8-3-6.5-3.9c-2.8-0.9-6-1-9-0.3
										c-0.8,0.2-1.5,0.4-2.2,0.7c-0.7,0.2-1.4,0.6-2,0.9c-1.2,0.6-2.3,1.5-3.1,2.3c-1.7,1.7-2.5,3.4-2.9,4.7
										c-0.4,1.2-0.5,2-0.5,2s0.7,0.2,1.9,0.6c1.1,0.3,2.7,1,4,1.7c2.9,1.7,4.5,4.1,8.3,5.2c1.9,0.6,4.1,0.8,6.4,0.8
										c2.3-0.1,4.6-0.4,6.7-1c1-0.3,1.9-0.6,2.7-1c0.8-0.3,1.5-0.7,2-1.1c1.1-0.7,1.7-1.2,1.7-1.2s-1.6-2.5-3.6-5.7
										c-0.3-0.4-0.5-0.8-0.8-1.2C146.7,1222.4,146.4,1222,146.1,1221.6z"/>
								</g>
							</g>
						</g>
					</g>
				</g>
				<g>
					<g>
						<g>
							<g>
								<g>
									<path fill="#01BAB5" d="M359.8,1220.5c-0.2-1.1-0.4-2.2-0.7-3.3c-1.2-4.4-3.4-8.1-5.8-11c-2.4-2.9-5.1-5.2-7.5-6.7
										c-2.5-1.6-4.7-2.6-6.2-3.1c-1.6-0.6-2.5-0.8-2.5-0.8s0.1,1,0.3,2.6c0.2,1.6,0.4,3.8,0.8,6.4c0.6,5.2,1.5,11.6,3.2,17.6
										c0.2,0.7,0.4,1.5,0.6,2.2c0.2,0.8,0.5,1.5,0.7,2.2c0.5,1.6,1.1,3.1,1.7,4.5c1.2,2.9,2.4,5.4,3.4,7.7c1,2.2,1.8,4.2,2.2,5.7
										c0.1,0.4,0.2,0.7,0.3,1c0.1,0.3,0.1,0.6,0.1,0.8c0.1,0.4,0.1,0.7,0.1,0.7s0.2-0.1,0.6-0.3c0.2-0.1,0.4-0.3,0.7-0.5
										c0.3-0.2,0.6-0.4,0.9-0.7c1.3-1.2,3-3.2,4.3-6c1.4-2.8,2.4-6.2,2.9-9.9c0.2-1.9,0.4-3.8,0.3-5.8c0-0.5,0-1-0.1-1.5
										C360,1221.6,359.9,1221,359.8,1220.5z"/>
								</g>
							</g>
						</g>
					</g>
				</g>
			</g>
			<g>
				<g>
					<path fill="#01BAB5" d="M192.4,1150.6c54.8,0,97.1,40.9,146,88.3c33.1,32,67.2,65.1,110.2,91.1c49.2,29.8,101,44.3,158.5,44.3
						c52.9,0,98.1-15.5,134.4-46c0.8-0.7,1-2,0.2-2.8c-0.7-0.8-2-1-2.8-0.2c-35.5,29.9-79.9,45.1-131.8,45.1
						c-127.2,0-200.9-71.3-265.9-134.3c-49.6-48-92.4-89.4-148.8-89.4c0,0,0,0,0,0c-14.3,0-50,2.7-71.2,27.8
						c-14.4,17-17.5,37.7-8.6,57c10.7,23.1,35.5,38.6,61.7,38.7c0,0,0.1,0,0.1,0c10.5,0,19.5-3.4,25.5-9.5
						c10.4-10.6,13.4-30.7,7-46.6c-5.2-12.8-15.5-20.4-28.3-20.7c-8.5-0.2-15.9,3.9-18.9,10.5c-2.6,5.8-1.3,12.2,3.7,17.6
						c0.8,0.8,2,0.9,2.8,0.1s0.9-2,0.1-2.8c-3.8-4.1-4.9-8.9-3-13.2c2.3-5.2,8.3-8.3,15.2-8.2c15.3,0.4,22.1,11.6,24.7,18.2
						c5.9,14.6,3.3,32.7-6.1,42.3c-5.2,5.3-13.4,8.3-22.6,8.3c0,0-0.1,0-0.1,0c-24.3-0.1-48.2-15-58.1-36.4c-8.3-18-5.5-36.7,8-52.7
						C130.9,1169.1,151,1150.6,192.4,1150.6z"/>
				</g>
			</g>
			<g>
				<g>
					<path fill="#01BAB5" d="M292.1,1307.1c1.5-0.3,2,0.3,2.4,1c0.5,1,1.7,1.4,2.7,0.9c1-0.5,1.4-1.7,0.9-2.7
						c-1.3-2.6-3.8-3.7-6.8-3.1c-5.6,1.2-12.8,8.9-13.2,16.7c-0.2,3.9,1.2,10.9,12.5,14.5c6.7,2.1,14.8,0.3,20.6-4.7
						c8.6-7.4,11.3-18.2,7.3-29c-4.3-11.5-15.2-19.3-27.2-19.3c-9.7,0-18.5,4.1-24.7,11.6c-7,8.4-10,20.2-7.9,31.5
						c5,27.1,32.1,39.5,55.1,39.5c33.4,0,61.1-14.6,87.9-28.7c10.5-5.5,21.3-11.2,32.2-15.8c1-0.4,1.5-1.6,1.1-2.6
						c-0.4-1-1.6-1.5-2.6-1.1c-11,4.7-21.9,10.4-32.5,16c-26.4,13.9-53.6,28.2-86,28.2c-21.4,0-46.6-11.3-51.2-36.2
						c-1.9-10.1,0.8-20.6,7.1-28.2c5.5-6.5,13.1-10.1,21.6-10.1c11.9,0,20.4,8.4,23.4,16.7c3.4,9.1,1.1,18.3-6.2,24.5
						c-4.7,4.1-11.3,5.6-16.8,3.9c-4.6-1.5-10-4.4-9.7-10.4C282.4,1313.8,288.4,1307.9,292.1,1307.1z"/>
				</g>
			</g>
		</g>
		<g>
			<g>
				<g>
					<g>
						<g>
							<path fill="#01BAB5" d="M1744.9,935.1c-27.8,25.2-65.6,45.4-102.1,64.9c-32.6,17.4-66.3,35.4-92.7,56.9
								c-29.8,24.3-47,50.6-52.7,80.3c-0.2,1.1,0.5,2.1,1.6,2.3c0.1,0,0.2,0,0.4,0c0.9,0,1.8-0.7,2-1.6c5.4-28.8,22.2-54.3,51.3-78
								c26.1-21.3,59.6-39.2,92-56.5c73.8-39.5,150.2-80.3,150.2-164.7c0-21.9-9.1-42.4-25.7-57.7c-14.1-13-32.6-21-48.4-21
								c0,0,0,0,0,0c-12.1,0-24.2,5.4-33.9,15.2c-10.9,11-17.4,26-17.3,40.1c0.1,19.7,19.2,35.5,37,37.9c14.8,2,26-5.4,30.1-19.8
								c2.6-9.3-1.5-20.6-9.7-26.3c-6.8-4.7-14.6-4.6-21.4,0.4c-0.9,0.6-1.1,1.9-0.4,2.8c0.6,0.9,1.9,1.1,2.8,0.4
								c7.4-5.3,13.7-2.5,16.8-0.3c6.8,4.8,10.3,14.2,8.1,21.9c-3.6,12.5-12.9,18.7-25.7,17c-15.8-2.1-33.4-16.6-33.5-33.9
								c-0.1-13.1,5.9-27,16.1-37.3c9-9.1,20-14,31.1-14c0,0,0,0,0,0c14.8,0,32.3,7.7,45.7,20c15.8,14.5,24.4,33.9,24.4,54.7
								C1790.9,875.6,1775.9,907.1,1744.9,935.1z"/>
						</g>
					</g>
					<g>
						<g>
							<path fill="#01BAB5" d="M1978.4,946.7c0,1.1,0.9,2,2,2s2-0.9,2-2c0-1.2,0-2.4,0.1-3.6c0-1.2,0.1-2.4,0.1-3.6
								c0-7-1.6-16.4-15.6-16.4c-9.8,0-18.7,3.4-25.1,9.6c-5.9,5.7-9.2,13.6-9.2,21.5c0,17.6,18.2,30.7,34.4,30.7
								c17.1,0,33-8.5,44.9-23.9c10.9-14.2,17.2-32.8,17.2-51c0-37-23.9-60-62.3-60c-33,0-69.7,20.2-108.6,41.6
								c-38.2,21-77.7,42.8-116.2,46.6c-1.1,0.1-1.9,1.1-1.8,2.2c0.1,1.1,1.1,1.9,2.2,1.8c39.4-3.9,79.2-25.8,117.8-47
								c38.4-21.1,74.6-41.1,106.6-41.1c18.1,0,33,5.3,43.2,15.4c9.9,9.8,15.1,23.8,15.1,40.6c0,17.4-6,35.1-16.4,48.6
								c-11.1,14.4-25.9,22.3-41.7,22.3c-14.1,0-30.4-11.7-30.4-26.7c0-17,15.4-27.2,30.3-27.2c8.4,0,11.6,3.5,11.6,12.4
								c0,1.1,0,2.3-0.1,3.5C1978.4,944.2,1978.4,945.4,1978.4,946.7z"/>
						</g>
					</g>
					<g>
						<g>
							<path fill="#01BAB5" d="M1916.3,590.6c1.1,0,2.2,0.1,3.4,0.2c1.2,0.1,2.5,0.2,3.7,0.2c1.1,0,2-0.9,2-2s-0.9-2-2-2
								c-1.1,0-2.2-0.1-3.4-0.2c-1.2-0.1-2.5-0.2-3.7-0.2c-8.2,0-14.7,3.5-18.4,9.7c-4.1,7.1-3.7,16.9,1.2,25.4
								c9.9,17.3,20.9,19,28.3,17.4c17.3-3.9,32.6-30.2,34.3-50.2c2.8-34.5-15-49.8-26-55.8c-22.9-12.6-55.1-8.6-79.9,10.2
								c-52.9,39.8-49.8,99.4-46.7,157c0.8,15.5,1.7,31.6,1.3,46.7c-0.7,30.6-7.4,55.7-20.5,76.8c-0.6,0.9-0.3,2.2,0.7,2.8
								c0.3,0.2,0.7,0.3,1,0.3c0.7,0,1.3-0.3,1.7-0.9c13.4-21.7,20.3-47.5,21-78.8c0.4-15.3-0.5-31.4-1.3-47
								c-3-56.5-6.1-115,45.1-153.6c23.3-17.5,54.4-21.6,75.6-9.9c17.4,9.6,25.9,28,23.9,52c-0.8,9.2-4.7,20.1-10.4,29.1
								c-6.2,9.7-13.6,15.9-20.7,17.5c-8.9,2-16.9-3.2-23.9-15.5c-4.2-7.3-4.6-15.4-1.2-21.4
								C1904.3,593.4,1909.6,590.6,1916.3,590.6z"/>
						</g>
					</g>
					<g>
						<g>
							<path fill="#01BAB5" d="M1684.5,553.5c11.1-5.4,24.5-5.8,35.9-1.2c22.3,9,44.1,31.9,58.5,61.4c18.8,38.7,28.9,86.4,30.8,146
								c0,1.1,0.9,1.9,2,1.9c0,0,0,0,0.1,0c1.1,0,2-1,1.9-2.1c-1.9-60.1-12.1-108.4-31.2-147.6c-21.3-43.7-49.4-58.8-60.6-63.3
								c-12.4-5-27.1-4.5-39.2,1.3c-10.4,5-17.8,13.6-20.9,24.1c-3.8,12.7-0.8,27.6,7.6,39c7.3,9.8,17.4,15.1,28.6,15.1
								c7.7,0,14.7-3.5,19.3-9.5c4.5-6,5.9-13.6,3.9-20.9c-2.2-7.9-9.6-15.2-17.4-17.2c-5.8-1.5-11.3,0-15.4,4.2
								c-0.8,0.8-0.8,2.1,0,2.8c0.8,0.8,2.1,0.8,2.8,0c4-4,8.5-3.9,11.6-3.1c6.5,1.7,12.8,7.9,14.6,14.4c1.7,6.1,0.6,12.5-3.2,17.4
								c-3.8,5-9.7,7.9-16.1,7.9c-9.8,0-18.8-4.8-25.4-13.5c-7.6-10.2-10.4-24.1-7-35.4C1668.5,565.7,1675.2,558,1684.5,553.5z"/>
						</g>
					</g>
				</g>
				<g>
					<g>
						<g>
							<path fill="#01BAB5" d="M1380,671.5c-15-31.7-52.3-37.8-72.4-28.3c-8,3.8-14.2,11-17.5,20.5c-3.7,10.5-3.3,22.3,1.1,31.5
								c2.9,5.9,8.4,10.5,15.7,13c6.7,2.2,14.1,2.4,20.3,0.4c10.4-3.3,15.5-11.7,13.7-22.6c-1.2-7-7.5-13.2-14.7-14.4
								c-6-1-11.2,1.5-14.2,7c-0.5,1-0.2,2.2,0.8,2.7c1,0.5,2.2,0.2,2.7-0.8c2.9-5.4,7.6-5.4,10.1-5c5.6,1,10.5,5.7,11.4,11.1
								c1.5,8.8-2.5,15.4-11,18.1c-10.6,3.4-26-0.5-31.2-11.3c-4-8.2-4.3-18.9-1-28.4c3-8.4,8.5-14.9,15.4-18.2
								c9.4-4.4,22.8-4.8,35-1c14.4,4.5,25.8,14.2,32,27.5c11.3,23.8,11.2,47.8-0.3,75.5c-10.2,24.6-28.3,49-45.8,72.7
								c-31.4,42.4-64,86.3-51.8,133c0.2,0.9,1,1.5,1.9,1.5c0.2,0,0.3,0,0.5-0.1c1.1-0.3,1.7-1.4,1.4-2.4
								c-11.7-44.8,18.8-86,51.1-129.6C1369,775.7,1405.8,726.1,1380,671.5z"/>
						</g>
					</g>
					<g>
						<g>
							<path fill="#01BAB5" d="M1382.2,475.7c0.7-0.3,1.4-0.6,2.2-0.9c0.8-0.3,1.7-0.6,2.5-1c1-0.5,1.4-1.7,1-2.7s-1.7-1.4-2.7-1
								c-0.7,0.3-1.4,0.6-2.2,0.9c-0.8,0.3-1.7,0.6-2.5,1c-5.5,2.6-8.7,7-9.2,12.3c-0.5,6.1,2.8,12.4,8.7,16.5
								c12,8.3,19.7,6,24.2,2.5c4.8-3.8,8.1-10.8,9.3-19.8c1-8.1,0.2-16.9-2.3-23.6c-6.5-17.3-18.7-27.4-34.2-28.4
								c-18.8-1.2-38.5,11.4-48.8,31.2c-22,42-1.8,79.5,17.7,115.7c5.2,9.7,10.7,19.8,15,29.6c8.8,19.8,12.1,37.9,10.2,55.3
								c-0.1,1.1,0.7,2.1,1.8,2.2c0.1,0,0.2,0,0.2,0c1,0,1.9-0.8,2-1.8c2-18.2-1.4-36.9-10.5-57.4c-4.4-9.9-9.9-20.1-15.2-29.9
								c-19.1-35.3-38.8-71.8-17.7-111.9c9.5-18.1,28-30.1,45.1-29c13.8,0.9,24.7,10,30.7,25.8c4.5,12.1,3,32.1-5.7,38.8
								c-4.9,3.8-11.4,2.9-19.4-2.7c-4.7-3.3-7.4-8.2-7-12.8C1375.6,480.9,1378.1,477.7,1382.2,475.7z"/>
						</g>
					</g>
					<g>
						<g>
							<path fill="#01BAB5" d="M1244.4,510.7c16.9-1,37.8,7.1,55.9,21.5c23.8,19.1,44.8,46.7,64.1,84.3c0.4,0.7,1.1,1.1,1.8,1.1
								c0.3,0,0.6-0.1,0.9-0.2c1-0.5,1.4-1.7,0.9-2.7c-19.6-38.2-40.9-66.2-65.1-85.6c-27.1-21.7-50-22.9-58.6-22.4
								c-9.7,0.6-19.1,5.4-25.2,13c-5.3,6.5-7.5,14.4-6.2,22.3c1.5,9.5,8,18.4,17.1,23.1c7.8,4.1,16.2,4.5,23.5,1.1
								c5.1-2.4,8.7-6.9,9.8-12.4c1.1-5.4-0.3-10.9-4-15.1c-4-4.6-11.1-7.1-17-6c-4.4,0.8-7.6,3.6-9.1,7.7c-0.4,1,0.2,2.2,1.2,2.6
								s2.2-0.2,2.6-1.2c1.2-3.5,4-4.7,6.1-5.1c4.5-0.9,10.2,1.1,13.2,4.7c2.9,3.3,4,7.5,3.1,11.7c-0.9,4.2-3.7,7.7-7.6,9.6
								c-6.1,2.9-13.2,2.6-19.9-1c-7.8-4.2-13.7-12.1-15-20.2c-1.1-6.7,0.9-13.6,5.4-19.2C1227.4,515.5,1235.8,511.2,1244.4,510.7z"
								/>
						</g>
					</g>
					<g>
						<g>
							<path fill="#01BAB5" d="M1498.8,580.7c0.9,0.6,2.2,0.3,2.8-0.6c1.1-1.6,1.6-3.5,1.5-5.3c-0.1-3.5-2-6.5-5-8
								c-3.1-1.5-6.8-1.2-9.8,0.9c-8.8,6.1-10.5,19.3-6.7,27.4c3.3,6.8,9.9,9.5,17.9,7.1c6.6-1.9,11.2-7.1,13.9-11.1
								c5.5-8.1,7.9-18.1,6.7-27.4c-0.5-3.6-1.6-7.4-3.5-11.2c-7.6-15.9-22.7-22.6-38.4-17.1c-13.9,4.9-25.4,17.5-34.9,38.4
								c-6.6,14.5-10.8,30.3-14.9,45.5c-0.5,1.7-0.9,3.4-1.4,5.1c-1.1,4-2.2,8.4-3.3,13c-7,27.9-16.5,66-39.2,83.4
								c-0.9,0.7-1,1.9-0.4,2.8c0.4,0.5,1,0.8,1.6,0.8c0.4,0,0.8-0.1,1.2-0.4c23.8-18.2,33.6-57.1,40.7-85.6
								c1.1-4.6,2.2-8.9,3.3-12.9c0.5-1.7,0.9-3.4,1.4-5.1c4-15.1,8.2-30.7,14.7-44.9c9.1-19.9,19.7-31.8,32.6-36.3
								c13.9-4.9,26.7,0.9,33.5,15c1.7,3.5,2.7,6.8,3.1,10c1.1,8.3-1.2,17.3-6.1,24.6c-2.3,3.5-6.3,7.9-11.7,9.5
								c-6.1,1.8-10.7,0-13.1-5c-3.2-6.6-1.5-17.6,5.4-22.4c1.8-1.3,4-1.5,5.8-0.6c1.7,0.8,2.7,2.5,2.7,4.6c0,1.1-0.2,2.1-0.8,3
								C1497.6,578.8,1497.9,580.1,1498.8,580.7z"/>
						</g>
					</g>
				</g>
			</g>
			<g>
				<g>
					<g>
						<g>
							<g>
								<g>
									<g>
										<path fill="#01BAB5" d="M1841.8,701.9c-0.7,0.1-1.4,0.2-2.3,0.3c-0.9,0.1-2,0.4-3.1,0.6c-4.3,1-9.6,2.6-13.9,6
											c-1.7,1.3-3.4,3-5.1,4.9c-1.7,1.9-3.3,3.9-4.6,5.9c-1.3,1.9-2.2,3.7-2.7,5.1c-0.5,1.3-0.7,2.1-0.7,2.1s0.8,0.2,2.2,0.4
											c1.4,0.2,3.2,0.5,5.5,0.7c2.2,0.2,4.8,0.3,7.7-0.3c1.5-0.3,3-0.7,4.5-1.3c1.6-0.7,3.2-1.6,4.6-2.7
											c5.1-3.9,7.9-9.6,9.1-14.1c0.3-1.2,0.4-2.1,0.7-3.1c0.2-1,0.3-1.9,0.4-2.6c0.1-0.7,0-1.3,0-1.7c-0.1-0.4-0.1-0.6-0.1-0.6
											S1843.1,701.7,1841.8,701.9z"/>
									</g>
								</g>
							</g>
						</g>
					</g>
				</g>
				<g>
					<g>
						<g>
							<g>
								<g>
									<g>
										<path fill="#01BAB5" d="M1805.7,684.2c-0.2-0.7-0.5-1.4-0.8-2.1c-0.6-1.5-1.4-2.9-2.3-4.4c-1.9-2.8-4.6-5.5-7.7-7.5
											c-3.2-2-6.5-3.1-9.6-3.6c-3.1-0.5-6-0.5-8.5-0.3c-2.5,0.2-4.5,0.6-6,1c-1.4,0.4-2.3,0.7-2.3,0.7s0.4,0.8,1.2,2
											c0.8,1.3,2,3,3.5,4.9c1.5,1.9,3.3,4,5.3,5.9c2,2,4.2,3.8,6.6,5.3c2.4,1.5,4.8,2.6,7.2,3.5c1.1,0.5,2.4,0.9,3.4,1.3
											c0.6,0.2,1.1,0.4,1.7,0.6c0.5,0.2,1.1,0.4,1.6,0.6c1.1,0.4,2,0.8,2.9,1.1c0.4,0.2,0.9,0.3,1.3,0.5
											c0.4,0.2,0.7,0.3,1.1,0.5c1.3,0.6,2.2,0.9,2.2,0.9s0.2-0.8,0.4-2.4c0-0.4,0.1-0.8,0.1-1.3c0-0.5,0-1,0-1.5
											c-0.1-1.1-0.1-2.3-0.5-3.6C1806.1,685.6,1805.9,684.9,1805.7,684.2z"/>
									</g>
								</g>
							</g>
						</g>
					</g>
				</g>
				<g>
					<g>
						<g>
							<g>
								<g>
									<g>
										<path fill="#01BAB5" d="M1821.4,819.3c-1-0.4-2.2-1.2-3.7-2c-2.9-1.7-6.6-3.6-11-3.4c-1.1,0.1-2.2,0.3-3.5,0.6
											c-0.4,0.1-0.5,0.2-0.7,0.3l-0.6,0.3c-0.4,0.2-0.8,0.4-1.2,0.6c-1.6,0.9-3.3,2-4.8,3.1c-1.5,1.1-2.8,2.2-3.7,3.1
											c-0.9,0.9-1.3,1.4-1.3,1.4s0.5,0.6,1.3,1.5c0.8,0.9,1.9,2.1,3.4,3.3c1.5,1.2,3.3,2.5,5.6,3.3c0.6,0.2,1.2,0.4,1.8,0.5
											c0.3,0.1,0.6,0.1,1,0.2c0.3,0.1,0.7,0.1,0.9,0.1c0.8,0.2,2,0.3,3.1,0.2c4.6-0.3,9.2-3,12-6.2c1.4-1.6,2.5-3.2,2.9-4.5
											c0.2-0.6,0.3-1.2,0.3-1.5c0-0.3,0-0.5,0-0.5s-0.2,0-0.5-0.1C1822.3,819.6,1821.9,819.5,1821.4,819.3z"/>
									</g>
								</g>
							</g>
						</g>
					</g>
				</g>
				<g>
					<g>
						<g>
							<g>
								<g>
									<g>
										<path fill="#01BAB5" d="M1747.5,911.2c-2.9-2.5-5.6-3.6-5.6-3.6s-1.8,2.3-3.5,5.5c-1.7,3.2-3.3,7.2-3,11
											c0.3,3.8,2.6,6.8,4.4,9.4c0.9,1.3,1.7,2.5,2.1,3.5c0.2,0.5,0.3,1,0.4,1.3c0.1,0.3,0.1,0.5,0.1,0.5s0.2,0,0.5,0
											c0.3,0,0.8-0.1,1.5-0.3c1.2-0.4,2.9-1.3,4.5-2.9c3.1-3.1,5.5-8.2,5.1-13.1C1753.5,917.6,1750.4,913.7,1747.5,911.2z"/>
									</g>
								</g>
							</g>
						</g>
					</g>
				</g>
				<g>
					<g>
						<g>
							<g>
								<g>
									<g>
										<path fill="#01BAB5" d="M1720.9,987.7c-1.5-2.5-3.6-5-6.3-7.1c-2.7-2.1-5.9-3.5-9.1-4.3c-0.8-0.2-1.6-0.3-2.4-0.4
											c-0.4-0.1-0.8-0.1-1.1-0.2c-0.4,0-0.8,0-1.2-0.1c-0.8,0-1.5,0-2.2,0c-0.7,0-1.4,0.1-2.1,0.2c-0.7,0.1-1.3,0.2-1.8,0.3
											c-0.6,0.2-1.1,0.3-1.6,0.5c-0.5,0.2-0.9,0.3-1.4,0.5c-0.4,0.2-0.8,0.4-1.1,0.6c-1.3,0.8-1.9,1.3-1.9,1.3s0.6,0.6,1.6,1.6
											c0.2,0.2,0.5,0.5,0.8,0.8c0.3,0.3,0.5,0.6,0.8,1c0.3,0.3,0.6,0.7,0.9,1c0.3,0.4,0.6,0.8,0.9,1.2c0.3,0.4,0.6,0.8,1,1.2
											c0.3,0.5,0.7,0.9,1,1.3c0.2,0.2,0.3,0.4,0.5,0.6c0.2,0.2,0.3,0.5,0.5,0.7c0.4,0.5,0.7,0.9,1.1,1.4
											c1.5,1.9,3.3,3.7,5.5,5.4c2.2,1.7,4.7,3,7.2,4.1c2.5,1.1,5.1,1.8,7.4,2.3c2.3,0.5,4.3,0.7,5.8,0.8c1.4,0.1,2.3,0,2.3,0
											s-0.1-0.9-0.4-2.2c-0.3-1.4-0.7-3.3-1.5-5.5C1723.4,992.7,1722.4,990.2,1720.9,987.7z"/>
									</g>
								</g>
							</g>
						</g>
					</g>
				</g>
				<g>
					<g>
						<g>
							<g>
								<g>
									<g>
										<path fill="#01BAB5" d="M1947.4,860.5c-2.2-1.3-4.7-2-7.1-2.2c-2.4-0.2-4.7,0.1-6.7,0.7c-1,0.3-1.9,0.6-2.6,1
											c-0.8,0.3-1.4,0.7-1.9,1c-1.1,0.7-1.6,1.2-1.6,1.2s1.4,2.5,3.1,5.6c1.7,3,3.8,6.6,7.2,8.6c3.4,2,7.6,2.3,11.2,2.4
											c1.8,0,3.4-0.1,4.6-0.1c1.2-0.1,1.9-0.1,1.9-0.1s0.1-0.7,0.1-2c0-1.2-0.1-2.9-0.6-4.9
											C1954.1,867.9,1951.8,863.2,1947.4,860.5z"/>
									</g>
								</g>
							</g>
						</g>
					</g>
				</g>
				<g>
					<g>
						<g>
							<g>
								<g>
									<g>
										<path fill="#01BAB5" d="M1901.4,869.8c0,0,0.2,0,0.6,0.1c0.4,0,1,0,1.8-0.2c1.5-0.3,3.6-1.4,5.6-3.1c2-1.6,3.9-4,5.5-6.1
											c0.4-0.5,0.8-1.2,1.2-1.8c0.4-0.7,0.7-1.3,1.1-2c0.7-1.4,1.2-2.9,1.6-4.5c1.5-6.4,0-13.1-2.5-17.5
											c-1.2-2.2-2.7-3.9-3.7-4.8c-1.2-1-1.9-1.3-1.9-1.3s-0.4,0.8-1,2c-0.7,1.2-1.6,2.7-2.7,4.5c-2.2,3.5-5.1,7.7-6.3,13
											c-0.3,1.3-0.5,2.7-0.6,4c-0.1,0.7-0.1,1.3-0.1,2c0,0.7,0,1.2,0,2c0.1,2.9,0.6,5,1,7c0.4,2,0.7,3.6,0.8,4.9
											c0,0.6,0,1.2-0.1,1.5C1901.4,869.6,1901.4,869.8,1901.4,869.8z"/>
									</g>
								</g>
							</g>
						</g>
					</g>
				</g>
				<g>
					<g>
						<g>
							<g>
								<g>
									<g>
										<path fill="#01BAB5" d="M1417.1,588.5c-0.6-0.8-1.1-1.5-1.5-2c-0.8-1.2-1.4-1.9-1.4-1.9s-0.6,0.6-1.5,1.8
											c-0.5,0.6-1,1.3-1.5,2.2c-0.5,0.9-1.1,2-1.5,3.2c-0.5,1.2-0.9,2.5-1.3,4c-0.2,0.7-0.3,1.5-0.4,2.2
											c-0.1,0.8-0.2,1.6-0.2,2.4c-0.2,3.2,0.2,6.7,1.3,10.1c2.3,6.7,7.1,11.4,11.1,14.1c2,1.4,3.8,2.4,5.2,3
											c1.3,0.6,2.1,0.9,2.1,0.9s0.2-0.9,0.4-2.3c0.2-1.4,0.5-3.5,0.6-5.8c0.2-4.7,0-10.6-1.9-16.1c-1.9-5.4-5.1-9.7-7.7-13.4
											C1418.3,590.1,1417.7,589.3,1417.1,588.5z"/>
									</g>
								</g>
							</g>
						</g>
					</g>
				</g>
				<g>
					<g>
						<g>
							<g>
								<g>
									<g>
										<path fill="#01BAB5" d="M1363.1,532.8c-0.2-3.1-0.4-5.7-0.6-7.5c-0.2-1.9-0.4-2.9-0.4-2.9s-0.9,0.6-2.3,1.8
											c-1.5,1.2-3.4,3.1-5.5,5.6c-1,1.3-2.2,2.7-3.2,4.3c-0.5,0.8-1,1.7-1.5,2.5c-0.5,0.9-1,1.8-1.4,2.8
											c-1.8,3.9-3.3,8.4-3.9,13.2c-0.6,4.8-0.4,9.4,0.3,13.5c0.7,4.1,1.7,7.8,2.9,10.8c1.1,3,2.3,5.4,3.2,7.1
											c0.9,1.7,1.5,2.6,1.5,2.6s0.6-0.9,1.5-2.6c0.9-1.7,2-4.1,3.2-7c2.4-5.9,5-13.7,6-22c0.6-4.2,0.7-8.2,0.7-12
											c0-0.9,0-1.9,0-2.8c0-0.9,0-1.8-0.1-2.7C1363.2,535.9,1363.2,534.3,1363.1,532.8z"/>
									</g>
								</g>
							</g>
						</g>
					</g>
				</g>
				<g>
					<g>
						<g>
							<g>
								<g>
									<g>
										<path fill="#01BAB5" d="M1316.4,457.2c-2.5-2.4-5-4.3-7.3-5.7c-2.3-1.4-4.4-2.4-5.9-3c-1.5-0.6-2.4-0.9-2.4-0.9
											s-0.1,0.9,0,2.5c0,1.6,0.2,3.8,0.5,6.4c0.3,2.6,0.8,5.6,1.6,8.6c0.8,3,1.8,6.1,3.2,9.1c1.4,3,3,5.6,4.8,8
											c0.8,1.2,1.7,2.4,2.5,3.5c0.9,1.1,1.7,2.2,2.4,3.1c1.6,2,2.9,3.7,3.9,4.9c1,1.2,1.6,1.9,1.6,1.9s0.5-0.8,1.3-2.2
											c0.4-0.7,0.8-1.6,1.2-2.7c0.4-1.1,0.9-2.3,1.2-3.7c0.3-1.4,0.6-2.9,0.8-4.5c0.2-1.6,0.2-3.4,0.1-5.2
											c-0.3-3.6-1.1-7.5-2.9-11.1C1321.1,462.7,1318.8,459.7,1316.4,457.2z"/>
									</g>
								</g>
							</g>
						</g>
					</g>
				</g>
				<g>
					<g>
						<g>
							<g>
								<g>
									<g>
										<path fill="#01BAB5" d="M1361.3,625.9c-2.1-0.7-3.9-1.1-5.2-1.3c-1.3-0.2-2.1-0.1-2.1-0.1s0,0.8,0,2.1
											c0,1.3,0,3.1,0.1,5.1c0.3,4.1,1,9,3.4,13.1c2.4,4.1,6.1,6.6,8.8,8.7c1.4,1,2.5,2,3.2,3c0.3,0.5,0.5,1,0.7,1.3
											c0.1,0.3,0.2,0.5,0.2,0.5s0.2-0.1,0.5-0.2c0.4-0.1,0.9-0.4,1.4-0.9c1.1-0.9,2.4-2.9,3.1-5.3c1.5-4.9,1.1-11.3-1.9-16.5
											C1370.4,630.2,1365.4,627.3,1361.3,625.9z"/>
									</g>
								</g>
							</g>
						</g>
					</g>
				</g>
				<g>
					<g>
						<g>
							<g>
								<g>
									<g>
										<path fill="#01BAB5" d="M1367.9,717.3c-1.1-0.8-2.1-1.4-3-1.9c-1-0.5-1.8-0.9-2.5-1.2c-1.4-0.6-2.3-0.8-2.3-0.8
											s-0.1,0.9-0.1,2.4c0,0.7-0.1,1.6-0.1,2.6c0,1-0.1,2.1-0.1,3.3c0,2.3-0.1,5,0.2,7.8c0.2,2.8,0.6,5.7,1.4,8.5
											c1.6,5.7,4.6,10.3,6.6,14.2c0.3,0.5,0.5,1,0.8,1.4c0.3,0.5,0.4,0.9,0.6,1.3c0.4,0.8,0.8,1.7,1,2.3
											c0.5,1.4,0.8,2.2,0.8,2.2s0.7-0.4,2-1.5c0.7-0.5,1.2-1.2,2-2.1c0.3-0.4,0.7-0.9,1.1-1.5c0.3-0.5,0.7-1.1,1-1.7
											c0.7-1.3,1.2-2.6,1.7-4.2c0.3-0.8,0.4-1.5,0.6-2.4c0.2-0.8,0.4-1.7,0.4-2.5c0.4-3.4,0.2-7.1-0.8-10.8
											c-1.1-3.6-2.8-6.8-4.8-9.4C1372.4,720.9,1370.1,718.8,1367.9,717.3z"/>
									</g>
								</g>
							</g>
						</g>
					</g>
				</g>
				<g>
					<g>
						<g>
							<g>
								<g>
									<g>
										<path fill="#01BAB5" d="M1423.3,702.4c-4.1-2.3-10.2-4.3-17-3c-3.3,0.7-6.5,2.2-9.1,4.1c-2.6,1.9-4.6,4.4-5.9,6.7
											c-1.3,2.3-1.7,4.5-1.8,6c0,0.7,0,1.3,0.1,1.7c0,0.4,0.1,0.6,0.1,0.6s0.2-0.1,0.6-0.1c0.4-0.1,0.9-0.2,1.5-0.3
											c1.3-0.2,3-0.3,4.9-0.3c3.8,0.1,8.3,0.9,13.2-0.1c4.9-1,9.6-3.6,13.3-6c1.8-1.2,3.4-2.3,4.5-3.1c1.1-0.8,1.8-1.3,1.8-1.3
											s-0.5-0.6-1.6-1.6C1426.9,704.8,1425.3,703.6,1423.3,702.4z"/>
									</g>
								</g>
							</g>
						</g>
					</g>
				</g>
				<g>
					<g>
						<g>
							<g>
								<g>
									<g>
										<path fill="#01BAB5" d="M1771.9,549c-0.5-1.4-0.9-2.2-0.9-2.2s-0.7,0.5-1.9,1.4c-1.2,0.9-2.8,2.4-4.4,4.3
											c-1.6,1.9-3.3,4.4-4.6,7.4c-1.3,3-2.2,6.4-2.4,10.1c-0.1,3.7,0.6,7.2,1.7,10.3c1.2,3.1,2.7,5.7,4.3,7.7
											c0.8,1,1.6,1.9,2.3,2.6c0.7,0.7,1.4,1.4,2,1.8c1.2,1,1.9,1.4,1.9,1.4s0.4-0.8,0.9-2.2c0.3-0.7,0.6-1.5,0.9-2.4
											c0.3-0.9,0.7-1.9,1.1-3.1c0.7-2.2,1.6-4.7,2.2-7.3c0.7-2.6,1.1-5.4,1.2-8.3c0.1-2.9-0.2-5.7-0.7-8.4
											c-0.5-2.7-1.2-5.3-1.8-7.5C1773.1,552.3,1772.4,550.4,1771.9,549z"/>
									</g>
								</g>
							</g>
						</g>
					</g>
				</g>
				<g>
					<g>
						<g>
							<g>
								<g>
									<g>
										<path fill="#01BAB5" d="M1877.7,511.9c-2.8,1-5.9,2.5-8.7,4.9c-2.9,2.4-5.3,5.6-6.8,8.9c-0.4,0.8-0.7,1.7-1,2.5
											c-0.2,0.8-0.5,1.7-0.6,2.5c-0.1,0.4-0.2,0.8-0.2,1.2c-0.1,0.4-0.1,0.8-0.1,1.2c-0.1,0.8-0.1,1.5-0.1,2.2
											c0.1,2.8,0.5,4.9,1.1,6.4c0.5,1.5,0.9,2.2,0.9,2.2s0.8-0.5,1.9-1.4c1.1-0.9,2.8-2.1,4.6-3.3c0.5-0.3,0.9-0.6,1.4-0.9
											c0.2-0.2,0.5-0.3,0.7-0.5c0.3-0.1,0.5-0.3,0.8-0.4c0.5-0.3,1-0.6,1.5-0.9c0.5-0.3,1.1-0.6,1.6-0.9
											c2.1-1.2,4.2-2.5,6.4-4.4c2.2-1.8,4.3-4.1,6.1-6.5c1.8-2.4,3.3-5,4.4-7.3c1-2.4,1.7-4.4,2-5.9c0.3-1.5,0.4-2.4,0.4-2.4
											s-0.9,0.1-2.4,0.2c-1.4,0.2-3.5,0.4-5.8,0.8C1883.1,510.4,1880.5,510.9,1877.7,511.9z"/>
									</g>
								</g>
							</g>
						</g>
					</g>
				</g>
				<g>
					<g>
						<g>
							<g>
								<g>
									<g>
										<path fill="#01BAB5" d="M1935.6,586c0,0.4,0,0.6,0,0.6s0.2,0,0.6-0.1c0.4-0.1,1-0.2,1.8-0.5c1.5-0.5,3.6-1.4,5.8-3
											c4.4-3.1,9.4-8.7,11.2-16.4c0.9-3.9,0.8-7.9-0.1-11.5c-0.9-3.6-2.6-6.9-4.7-9.2c-2.1-2.3-4.4-3.5-6-3.9
											c-0.8-0.2-1.4-0.3-1.8-0.3c-0.4,0-0.6,0-0.6,0s0,0.2,0.1,0.6c0.1,0.4,0.2,0.9,0.2,1.7c0.1,1.4-0.1,3.2-0.7,5.1
											c-1.1,3.8-3.4,8-4.6,13.5c-1.2,5.5-1.2,11.3-1.1,15.9c0,2.3,0.1,4.3,0,5.8C1935.7,585,1935.7,585.6,1935.6,586z"/>
									</g>
								</g>
							</g>
						</g>
					</g>
				</g>
				<g>
					<g>
						<g>
							<g>
								<g>
									<g>
										<path fill="#01BAB5" d="M1966.2,577.6c-0.8-0.7-1.4-1.3-2.1-1.8c-1.2-0.9-1.9-1.4-1.9-1.4s-0.4,0.8-0.8,2.2
											c-0.2,0.7-0.5,1.5-0.8,2.5c-0.3,0.9-0.6,2-1,3.1c-0.6,2.3-1.4,4.8-1.8,7.5c-0.5,2.7-0.8,5.5-0.7,8.4
											c0.1,2.9,0.5,5.6,1.1,8.2c0.2,1.3,0.6,2.5,0.9,3.7c0.2,0.6,0.3,1.2,0.5,1.8c0.1,0.6,0.3,1.1,0.5,1.7
											c0.3,1.1,0.6,2.1,0.9,3.1c0.1,0.5,0.3,0.9,0.4,1.3c0.1,0.4,0.2,0.8,0.3,1.1c0.4,1.4,0.6,2.3,0.6,2.3s0.8-0.4,2.1-1.2
											c0.3-0.2,0.7-0.5,1.1-0.7c0.4-0.3,0.7-0.6,1.1-0.9c0.8-0.7,1.7-1.5,2.6-2.6c0.4-0.5,0.9-1,1.3-1.6
											c0.4-0.6,0.8-1.2,1.2-1.9c0.8-1.3,1.5-2.8,2.2-4.3c1.2-3.1,2-6.7,1.9-10.5c-0.1-3.7-1-7.2-2.3-10.2c-1.3-3-3-5.5-4.7-7.4
											C1967.8,579.1,1966.9,578.3,1966.2,577.6z"/>
									</g>
								</g>
							</g>
						</g>
					</g>
				</g>
				<g>
					<g>
						<g>
							<g>
								<g>
									<g>
										<path fill="#01BAB5" d="M1843.1,594.2c-1.3,0-2.8,0-4.4,0.3c-0.8,0.1-1.6,0.2-2.4,0.4c-0.8,0.2-1.6,0.4-2.4,0.7
											c-3.3,1-6.6,2.8-9.6,5.2c-2.9,2.4-5.1,5.3-6.7,8.1c-1.6,2.8-2.6,5.6-3.3,8.1c-0.7,2.5-1,4.6-1.2,6.1
											c-0.2,1.5-0.2,2.4-0.2,2.4s0.9-0.1,2.4-0.5c1.5-0.4,3.6-0.9,5.9-1.8c2.3-0.8,5-1.9,7.5-3.3c2.6-1.4,5.2-3,7.5-4.9
											c2.3-2,4.3-4,6-6.2c0.4-0.5,0.9-1.1,1.3-1.6c0.4-0.5,0.8-1,1.2-1.6c0.8-1.1,1.5-2.1,2.2-3c0.7-1,1.4-1.8,1.9-2.7
											c0.6-0.8,1.1-1.5,1.5-2.1c0.9-1.2,1.4-2,1.4-2s-0.8-0.3-2.3-0.8c-0.8-0.2-1.7-0.4-2.7-0.6
											C1845.7,594.4,1844.4,594.2,1843.1,594.2z"/>
									</g>
								</g>
							</g>
						</g>
					</g>
				</g>
				<g>
					<g>
						<g>
							<g>
								<g>
									<g>
										<path fill="#01BAB5" d="M1843.9,930.3c-0.3-0.5-0.5-1-0.9-1.6c-0.3-0.5-0.7-1-1.1-1.6c-0.4-0.5-0.9-1.1-1.4-1.7
											c-0.5-0.5-1.1-1.1-1.7-1.6c-0.3-0.3-0.6-0.6-0.9-0.8c-0.3-0.2-0.7-0.5-1-0.7c-0.7-0.5-1.4-1-2.1-1.5
											c-3-1.8-6.5-3.1-10.3-3.7c-3.7-0.5-7.3-0.2-10.4,0.4c-3.1,0.7-5.9,1.8-8.2,2.9c-2.3,1.1-4.1,2.3-5.3,3.2
											c-1.2,0.9-1.9,1.4-1.9,1.4s0.7,0.6,1.9,1.5c1.2,0.9,3,2,5.2,3.2c2.2,1.2,4.7,2.4,7.4,3.4c2.7,1,5.6,1.9,8.6,2.3
											c3,0.5,5.8,0.5,8.4,0.3c0.7,0,1.3,0,1.9-0.1c0.3,0,0.6-0.1,1-0.1c0.3,0,0.6,0,0.9,0c0.6,0,1.2-0.1,1.8-0.1
											c0.6,0,1.2-0.1,1.7-0.1c0.6,0,1.1-0.1,1.6-0.1c0.5,0,1,0,1.5,0c0.5,0,1,0,1.4,0c0.4,0,0.8,0,1.2,0c1.5,0,2.4,0.1,2.4,0.1
											s-0.1-0.9-0.6-2.4c-0.1-0.4-0.3-0.8-0.4-1.2C1844.4,931.2,1844.2,930.8,1843.9,930.3z"/>
									</g>
								</g>
							</g>
						</g>
					</g>
				</g>
				<g>
					<g>
						<g>
							<g>
								<g>
									<g>
										<path fill="#01BAB5" d="M1717.6,757c-3.4-4-9.1-8.4-16.5-9.8c-7.3-1.4-14.8,0.7-19.5,4c-2.4,1.6-3.9,3.5-4.7,4.9
											c-0.4,0.7-0.6,1.3-0.7,1.7c-0.1,0.4-0.2,0.6-0.2,0.6s0.2,0,0.6,0c0.4,0,1,0.1,1.6,0.2c1.4,0.3,3.1,0.8,5.1,1.7
											c3.9,1.6,8.6,4.1,14.4,5.2c5.7,1.1,11.6,0.5,16.2,0c2.3-0.3,4.3-0.5,5.7-0.7c0.7-0.1,1.3-0.1,1.7-0.2
											c0.4,0,0.6-0.1,0.6-0.1s-0.1-0.2-0.2-0.6c-0.1-0.4-0.3-1-0.7-1.7C1720.4,760.9,1719.3,759,1717.6,757z"/>
									</g>
								</g>
							</g>
						</g>
					</g>
				</g>
				<g>
					<g>
						<g>
							<g>
								<g>
									<g>
										<path fill="#01BAB5" d="M1672.9,822.8c0,0-0.6,0.5-1.4,1.5c-0.9,1-2.1,2.3-3.3,4c-1.2,1.7-2.5,3.6-3.4,5.9
											c-1,2.3-1.6,4.9-1.6,7.8c0,2.9,0.8,5.8,2,8.3c1.2,2.5,2.8,4.6,4.5,6.2c0.8,0.8,1.7,1.4,2.4,2c0.7,0.5,1.5,0.9,2,1.2
											c1.2,0.6,1.9,0.9,1.9,0.9s0.3-0.7,0.8-1.9c0.4-1.2,1.1-2.8,1.8-4.6c0.7-1.8,1.5-3.7,2.1-5.7c0.6-2,1.1-4.2,1-6.5
											c0-4.7-2-9.7-4.3-13.3c-1.1-1.8-2.2-3.3-3.1-4.2C1673.5,823.3,1672.9,822.8,1672.9,822.8z"/>
									</g>
								</g>
							</g>
						</g>
					</g>
				</g>
				<g>
					<g>
						<g>
							<g>
								<g>
									<g>
										<path fill="#01BAB5" d="M1479,514.7c-0.9,0.2-1.9,0.5-3,0.8c-1,0.3-2.1,0.7-3.1,1.2c-2.2,1-4.4,2.4-6.4,4.6
											c-2,2.3-3.6,5.3-4.3,8.3c-0.2,0.8-0.3,1.5-0.4,2.3c-0.1,0.8-0.1,1.5-0.1,2.2c0,1.4,0.3,2.8,0.6,3.9c0.7,2.4,1.7,4,2.6,5
											c0.9,1,1.4,1.5,1.4,1.5s0.6-0.6,1.5-1.5c0.8-0.9,2.2-2,3.6-3.1c0.8-0.5,1.4-1,2.2-1.5c0.4-0.2,0.7-0.4,1.1-0.7
											c0.4-0.2,0.8-0.4,1.2-0.7c1.5-0.9,3-2,4.5-3.6c1.5-1.7,2.8-3.8,3.8-6.1c0.5-1.2,0.9-2.3,1.3-3.6c0.3-1.2,0.6-2.4,0.7-3.5
											c0.2-1.1,0.2-2.2,0.2-3.1c0-0.9-0.1-1.7-0.2-2.4c-0.2-1.3-0.4-2.1-0.4-2.1S1482.9,513.8,1479,514.7z"/>
									</g>
								</g>
							</g>
						</g>
					</g>
				</g>
				<g>
					<g>
						<g>
							<g>
								<g>
									<g>
										<path fill="#01BAB5" d="M1419.1,431.1c-0.2-0.3-0.4-0.5-0.6-0.8c-0.2-0.3-0.4-0.5-0.7-0.8c-0.9-1-2-2.2-3.4-3.2
											c-0.7-0.5-1.3-1.1-2.1-1.5c-0.8-0.5-1.5-0.9-2.4-1.3c-3.3-1.7-7.3-2.8-11.5-2.8c-4.2-0.1-8,0.9-11.2,2.3
											c-1.6,0.7-3.1,1.5-4.4,2.3c-1.3,0.8-2.5,1.7-3.5,2.6c-2.1,1.7-3.6,3.4-4.6,4.6c-1,1.2-1.5,2-1.5,2s0.9,0.3,2.3,0.8
											c1.5,0.4,3.6,1.1,6,1.6c1.2,0.3,2.5,0.6,3.8,0.9c1.3,0.3,2.7,0.5,4.1,0.8c2.8,0.5,5.7,0.8,8.6,0.8
											c2.9,0.1,5.6-0.2,8.2-0.5c0.6-0.1,1.3-0.1,1.9-0.2c0.7-0.1,1.3-0.1,1.9-0.2c1.3-0.2,2.5-0.3,3.7-0.4
											c0.3,0,0.6-0.1,0.9-0.1c0.3,0,0.6,0,0.8,0c0.6,0,1.1-0.1,1.6-0.1c1-0.1,1.9-0.1,2.7-0.1c1.5-0.1,2.5-0.1,2.5-0.1
											s-0.3-0.9-0.9-2.3c-0.3-0.7-0.8-1.6-1.4-2.5C1419.8,432.1,1419.5,431.6,1419.1,431.1z"/>
									</g>
								</g>
							</g>
						</g>
					</g>
				</g>
				<g>
					<g>
						<g>
							<g>
								<g>
									<g>
										<path fill="#01BAB5" d="M1855.3,1268c-0.3-1.6-0.5-2.6-0.5-2.6s-0.8,0.5-2.2,1.4c-0.7,0.5-1.5,1.1-2.4,1.9
											c-0.9,0.8-1.9,1.7-2.8,2.7c-2,2.1-4,4.8-5.7,7.9c-1.7,3.1-3.2,6.7-4,10.5c-1.6,7.6-0.7,14.6,0.4,19.9
											c0.5,2.6,1.1,4.9,1.6,6.4c0.4,1.6,0.8,2.5,0.8,2.5s0.8-0.6,2-1.7c1.3-1.1,2.9-2.8,4.7-5c3.5-4.4,7.2-10.9,8.8-18.2
											c0.8-3.6,1-7.1,1-10.4c0-3.2-0.3-6.3-0.7-8.9c-0.2-1.3-0.3-2.5-0.5-3.6C1855.6,1269.7,1855.5,1268.8,1855.3,1268z"/>
									</g>
								</g>
							</g>
						</g>
					</g>
				</g>
				<g>
					<g>
						<g>
							<g>
								<g>
									<g>
										<path fill="#01BAB5" d="M1912,1265.3c-2.2-0.1-4.3,0-6.5,0.5c-2.2,0.5-4.2,1.4-6.1,2.5c-1.9,1.1-3.8,2.4-5.4,3.6
											c-1.6,1.2-3,2.4-3.9,3.3c-1,0.9-1.5,1.5-1.5,1.5s0.5,0.6,1.5,1.4c1,0.9,2.4,2,4.3,3.1c1.9,1.1,4.1,2.1,6.8,2.7
											c2.6,0.6,5.6,0.7,8.6,0c3-0.7,5.7-2.2,7.8-3.9c2.2-1.7,3.7-3.8,4.9-5.7c1.1-1.9,1.8-3.6,2.3-4.9c0.4-1.3,0.6-2,0.6-2
											s-0.8-0.2-2-0.5c-1.3-0.3-3-0.6-5-0.9C1916.4,1265.7,1914.2,1265.5,1912,1265.3z"/>
									</g>
								</g>
							</g>
						</g>
					</g>
				</g>
				<g>
					<g>
						<g>
							<g>
								<g>
									<g>
										<path fill="#01BAB5" d="M2043.6,1124.3c-1.5,0.6-3.6,1.3-6.2,2.1c-2.5,0.8-5.5,1.8-8.8,3.4c-1.6,0.8-3.4,1.9-5.1,3.2
											c-0.4,0.3-0.9,0.7-1.3,1.1c-0.4,0.4-0.9,0.8-1.3,1.2c-0.8,0.9-1.7,1.9-2.4,2.8c-2.9,3.8-4.5,7.9-5.3,11.6
											c-0.9,3.7-1.1,7.1-1,10c0.1,2.9,0.4,5.3,0.6,6.9c0.3,1.7,0.5,2.6,0.5,2.6s0.8-0.5,2.2-1.5c1.4-1,3.2-2.5,5.3-4.4
											c2.1-1.9,4.3-4.2,6.5-6.6c2.2-2.4,4.3-4.9,6.2-7.5c0.9-1.2,1.8-2.4,2.6-3.6c0.9-1.3,1.9-2.6,2.8-4
											c1.9-2.8,3.7-5.8,4.9-8.6c1.2-2.8,1.9-5.3,2.1-7.1c0.1-0.9,0.1-1.6,0.1-2c0-0.5,0-0.7,0-0.7s-0.2,0.1-0.7,0.3
											C2044.9,1123.8,2044.3,1124.1,2043.6,1124.3z"/>
									</g>
								</g>
							</g>
						</g>
					</g>
				</g>
				<g>
					<g>
						<g>
							<g>
								<g>
									<g>
										<path fill="#01BAB5" d="M2082.7,1176.4c-0.4-0.4-0.8-0.8-1.3-1.2c-1.7-1.5-3.6-3.5-5.6-5.3c-2-1.9-4.1-3.8-6.6-5.5
											c-2.4-1.8-4.9-3.2-7.3-4.5c-2.4-1.3-4.8-2.4-6.8-3.6c-0.5-0.3-1-0.5-1.5-0.8c-0.5-0.3-0.9-0.5-1.3-0.8
											c-0.9-0.5-1.7-1-2.3-1.4c-1.3-0.9-2-1.4-2-1.4s-0.3,0.8-0.7,2.4c-0.2,0.8-0.3,1.8-0.3,3c0,0.6,0,1.2,0,1.9
											c0.1,0.6,0.1,1.3,0.2,2c0.4,2.9,1.5,6.2,3.3,9.4c1.8,3.2,4.5,6.3,7.9,8.8c3.4,2.4,7.2,3.9,10.8,4.7
											c3.7,0.7,7.1,0.7,10,0.1c0.7-0.1,1.4-0.3,2-0.4c0.6-0.2,1.2-0.4,1.8-0.6c1.1-0.4,2-0.8,2.7-1.2c1.4-0.8,2.1-1.4,2.1-1.4
											s-0.7-0.6-2-1.5c-0.6-0.4-1.3-1-2.1-1.7C2083.5,1177.1,2083.1,1176.8,2082.7,1176.4z"/>
									</g>
								</g>
							</g>
						</g>
					</g>
				</g>
				<g>
					<g>
						<g>
							<g>
								<g>
									<g>
										<path fill="#01BAB5" d="M1916.1,1321.4c-0.6,0.1-1.3,0.2-1.9,0.4c-0.6,0.2-1.3,0.4-2,0.6c-0.7,0.2-1.3,0.5-2,0.9
											c-2.6,1.3-5.1,3.3-6.9,5.6c-1.8,2.3-2.7,4.7-3.3,7c-0.6,2.3-0.8,4.4-0.9,6.4c-0.1,1-0.1,1.9-0.2,2.7
											c0,0.8-0.1,1.6-0.1,2.2c-0.1,1.3-0.1,2.1-0.1,2.1s0.8,0.1,2.1,0c0.7,0,1.5-0.1,2.4-0.3c0.9-0.2,1.9-0.4,2.9-0.7
											c2.1-0.7,4.4-1.8,6.5-3.2c2.1-1.4,4-3.1,5.4-5c1.4-1.9,2.2-3.7,2.9-5.5c0.2-0.5,0.3-0.9,0.5-1.4c0.2-0.4,0.3-0.9,0.5-1.4
											c0.1-0.5,0.3-0.9,0.4-1.4c0.2-0.5,0.3-0.9,0.4-1.3c0.6-1.7,1.2-3.4,1.7-4.5c0.5-1.2,0.8-1.9,0.8-1.9s-0.7-0.3-2-0.7
											c-1.3-0.4-3.2-0.8-5.5-0.7C1917.3,1321.3,1916.7,1321.3,1916.1,1321.4z"/>
									</g>
								</g>
							</g>
						</g>
					</g>
				</g>
				<g>
					<g>
						<g>
							<g>
								<g>
									<g>
										<path fill="#01BAB5" d="M1945.2,1382.9c-1.1-1.5-1.9-3.1-2.8-5c-0.9-1.8-2-3.8-3.5-5.9c-3-4.2-7.4-8-11-10.8
											c-1.8-1.4-3.5-2.6-4.6-3.5c-1.2-0.8-1.9-1.3-1.9-1.3s-0.4,0.8-0.9,2.2c-0.5,1.4-1,3.5-1.2,6c-0.2,2.5-0.2,5.5,0.4,8.7
											c0.7,3.2,1.9,6.5,4.2,9.7c2.3,3.1,5.4,5.7,8.9,7.4c3.5,1.7,7.4,2.2,10.4,1.7c3.1-0.5,5.2-1.9,6.3-3
											c0.6-0.5,0.9-1.1,1.2-1.4c0.2-0.3,0.3-0.5,0.3-0.5s-0.2-0.1-0.6-0.3c-0.4-0.2-0.9-0.4-1.5-0.7
											C1947.7,1385.5,1946.2,1384.3,1945.2,1382.9z"/>
									</g>
								</g>
							</g>
						</g>
					</g>
				</g>
				<g>
					<g>
						<g>
							<g>
								<g>
									<g>
										<path fill="#01BAB5" d="M2058.7,1238.1c-1.6-0.4-3.4-0.6-5.3-0.5c-1.9,0.2-3.9,0.8-5.6,2.1c-1.8,1.3-3.1,3.3-3.9,5.4
											c-0.2,0.5-0.4,1.1-0.5,1.6c-0.1,0.5-0.2,1.1-0.3,1.6c-0.2,1-0.1,2.1-0.1,3c0.2,1.9,0.7,3.4,1.2,4.4c0.5,1,0.9,1.6,0.9,1.6
											s0.7-0.1,1.8-0.3c1-0.2,2.5-0.4,4-0.5c0.8-0.1,1.5-0.1,2.2-0.2c0.4,0,0.7-0.1,1.1-0.1c0.4,0,0.7-0.1,1.1-0.1
											c1.4-0.2,2.6-0.5,3.8-1.4c1.2-0.9,2.1-2.2,2.9-3.7c0.8-1.5,1.4-3.3,1.8-4.9c0.4-1.6,0.6-3.2,0.7-4.3c0.1-1.1,0-1.8,0-1.8
											s-0.6-0.3-1.7-0.6C2061.7,1238.9,2060.3,1238.4,2058.7,1238.1z"/>
									</g>
								</g>
							</g>
						</g>
					</g>
				</g>
				<g>
					<g>
						<g>
							<g>
								<g>
									<g>
										<path fill="#01BAB5" d="M2085,1263.9c-0.1,0.3-0.2,0.5-0.2,0.5s0.2,0.1,0.5,0.2c0.4,0.1,0.9,0.3,1.6,0.3
											c1.4,0.2,3.6-0.1,6-1.2c4.8-2.1,9.5-7.4,10.7-13.7c1.3-6.3-0.8-12.1-3.3-15.9c-1.2-1.9-2.6-3.3-3.6-4.2
											c-0.5-0.4-0.9-0.8-1.2-1c-0.3-0.2-0.5-0.3-0.5-0.3s-0.4,0.7-1.2,1.7c-0.7,1-1.7,2.5-2.8,4.2c-2.2,3.3-4.7,7.4-5.6,11.7
											c-0.9,4.3-0.1,8.3,0.2,11.7c0.1,1.7,0.1,3.3-0.2,4.5C2085.3,1263.1,2085.2,1263.5,2085,1263.9z"/>
									</g>
								</g>
							</g>
						</g>
					</g>
				</g>
				<g>
					<g>
						<g>
							<g>
								<g>
									<g>
										<path fill="#01BAB5" d="M2166.3,1160.5c-6.5-0.9-12.6,1.3-16.6,4c-2,1.3-3.5,2.8-4.4,4c-0.4,0.6-0.8,1-0.9,1.4
											c-0.2,0.3-0.3,0.5-0.3,0.5s0.2,0.1,0.5,0.2c0.3,0.1,0.8,0.4,1.4,0.7c1.2,0.6,2.7,1.5,4.5,2.5c3.6,2,8.1,4.4,13.1,5.1
											c5,0.7,9.7-0.4,13.5-1.1c1.9-0.4,3.5-0.6,4.7-0.6c0.6,0,1.1,0.1,1.5,0.2c0.4,0.1,0.6,0.1,0.6,0.1s0-0.2,0.1-0.6
											c0.1-0.4,0.1-1-0.1-1.7c-0.2-1.5-1.1-3.6-2.6-5.7C2178.3,1165.3,2172.8,1161.4,2166.3,1160.5z"/>
									</g>
								</g>
							</g>
						</g>
					</g>
				</g>
				<g>
					<g>
						<g>
							<g>
								<g>
									<g>
										<path fill="#01BAB5" d="M2147.8,1216.6c-0.6-0.3-1.3-0.7-2-0.9c-0.7-0.2-1.4-0.5-2.2-0.7c-3-0.7-6.2-0.6-9,0.3
											c-2.8,0.9-4.9,2.3-6.5,3.9c-0.8,0.8-1.6,1.6-2.2,2.4c-0.3,0.4-0.6,0.8-0.9,1.2c-0.3,0.4-0.5,0.8-0.8,1.2
											c-2,3.2-3.6,5.7-3.6,5.7s0.6,0.5,1.7,1.2c0.6,0.3,1.2,0.7,2,1.1c0.8,0.4,1.7,0.7,2.7,1c2,0.6,4.3,0.9,6.7,1
											c2.3,0.1,4.5-0.2,6.4-0.8c3.7-1.1,5.4-3.5,8.3-5.2c1.4-0.8,2.9-1.4,4-1.7c1.2-0.4,1.9-0.6,1.9-0.6s-0.1-0.7-0.5-2
											c-0.4-1.3-1.3-3-2.9-4.7C2150.1,1218.1,2149,1217.2,2147.8,1216.6z"/>
									</g>
								</g>
							</g>
						</g>
					</g>
				</g>
				<g>
					<g>
						<g>
							<g>
								<g>
									<g>
										<path fill="#01BAB5" d="M1918.7,1206.1c-2.4,2.9-4.6,6.6-5.8,11c-0.3,1.1-0.5,2.2-0.7,3.3c-0.1,0.6-0.1,1.1-0.2,1.7
											c0,0.5-0.1,1-0.1,1.5c-0.1,2,0,3.9,0.3,5.8c0.5,3.7,1.6,7.1,2.9,9.9c1.4,2.8,3,4.8,4.3,6c0.3,0.3,0.6,0.5,0.9,0.7
											c0.3,0.2,0.5,0.3,0.7,0.5c0.4,0.2,0.6,0.3,0.6,0.3s0-0.2,0.1-0.7c0-0.2,0.1-0.5,0.1-0.8c0.1-0.3,0.2-0.6,0.3-1
											c0.4-1.5,1.2-3.4,2.2-5.7c1-2.2,2.2-4.8,3.4-7.7c0.6-1.4,1.1-2.9,1.7-4.5c0.2-0.7,0.5-1.5,0.7-2.2
											c0.2-0.7,0.4-1.4,0.6-2.2c1.6-5.9,2.5-12.4,3.2-17.6c0.3-2.6,0.6-4.9,0.8-6.4c0.2-1.6,0.3-2.6,0.3-2.6s-0.9,0.2-2.5,0.8
											c-1.6,0.6-3.8,1.5-6.2,3.1C1923.7,1201,1921.1,1203.2,1918.7,1206.1z"/>
									</g>
								</g>
							</g>
						</g>
					</g>
				</g>
			</g>
			<g>
				<g>
					<path fill="#01BAB5" d="M2105.9,1221.5c0.8,0.8,2.1,0.7,2.8-0.1c5-5.3,6.3-11.7,3.7-17.6c-3-6.6-10.4-10.8-18.9-10.5
						c-12.8,0.4-23.2,7.9-28.3,20.7c-6.4,15.9-3.4,36,7,46.6c6,6.1,15,9.5,25.5,9.5c0,0,0.1,0,0.1,0c26.2-0.1,51-15.6,61.7-38.7
						c8.9-19.2,5.8-40-8.6-57c-21.3-25.1-56.9-27.8-71.2-27.8c-56.4,0-99.3,41.4-148.8,89.4c-65,62.9-138.7,134.3-265.9,134.3
						c-51.9,0-96.2-15.2-131.8-45.1c-0.8-0.7-2.1-0.6-2.8,0.2c-0.7,0.8-0.6,2.1,0.2,2.8c36.3,30.5,81.5,46,134.4,46
						c57.4,0,109.3-14.5,158.5-44.3c43-26,77.1-59.1,110.2-91.1c48.9-47.4,91.2-88.3,146-88.3c41.4,0,61.5,18.5,68.2,26.4
						c13.5,16,16.4,34.7,8,52.7c-9.9,21.3-33.7,36.3-58.1,36.4c0,0-0.1,0-0.1,0c-9.2,0-17.5-3-22.6-8.3c-9.4-9.6-12-27.7-6.1-42.3
						c2.7-6.6,9.4-17.8,24.7-18.2c6.9-0.2,12.8,3,15.2,8.2c1.9,4.3,0.9,9.1-3,13.2C2105,1219.5,2105.1,1220.7,2105.9,1221.5z"/>
				</g>
			</g>
			<g>
				<g>
					<path fill="#01BAB5" d="M1958.2,1360c-32.4,0-59.7-14.3-86-28.2c-10.5-5.5-21.5-11.3-32.5-16c-1-0.4-2.2,0-2.6,1.1
						c-0.4,1,0,2.2,1.1,2.6c10.9,4.6,21.7,10.3,32.2,15.8c26.8,14.1,54.5,28.7,87.9,28.7c23,0,50.1-12.4,55.1-39.5
						c2.1-11.3-0.9-23-7.9-31.5c-6.2-7.5-15-11.6-24.7-11.6c-12,0-22.9,7.7-27.2,19.3c-4,10.7-1.3,21.6,7.3,29
						c5.8,5,13.9,6.8,20.6,4.7c11.3-3.6,12.7-10.6,12.5-14.5c-0.4-7.8-7.5-15.5-13.2-16.7c-3-0.6-5.5,0.5-6.8,3.1
						c-0.5,1-0.1,2.2,0.9,2.7c1,0.5,2.2,0.1,2.7-0.9c0.3-0.7,0.9-1.3,2.4-1c3.7,0.8,9.7,6.7,10,13c0.3,6-5.1,9-9.7,10.4
						c-5.5,1.7-12,0.2-16.8-3.9c-7.3-6.3-9.6-15.4-6.2-24.5c3.1-8.3,11.5-16.7,23.4-16.7c8.5,0,16.2,3.6,21.6,10.1
						c6.3,7.5,8.9,18.1,7.1,28.2C2004.7,1348.7,1979.6,1360,1958.2,1360z"/>
				</g>
			</g>
		</g>
	</g>
	<g>
		<path fill="#01BAB5" d="M1137.5,559.8c-10.4,13.4-45.1,60.4-79.4,128.4c-23.9,47.4-43,95.7-56.6,143.5
			c-6.3,21.9-11.4,43.8-15.4,65.4c24.3,27.9,45.6,57.1,63.7,87.3c29.6,49.4,52.8,105.2,69,165.9c7.9,29.4,14.1,60.1,18.7,91.6
			c4.6-31.5,10.8-62.1,18.7-91.6c16.2-60.7,39.4-116.5,69-165.9c18.1-30.2,39.4-59.3,63.7-87.3c-4-21.7-9.1-43.5-15.4-65.4
			c-13.7-47.8-32.7-96-56.6-143.5C1182.6,620.2,1147.8,573.3,1137.5,559.8z"/>
		<path fill="#01BAB5" d="M1133.5,1273.8c-4.5-42.1-12.1-82.9-22.4-121.6c-16-59.9-38.9-115-68.1-163.7
			c-29.2-48.7-66.9-94.9-112.2-137.2c-36.3-34-77.4-65.6-122.3-94C743.9,716.6,690,694.2,674.2,688c-2,16.9-7.6,75-2.1,151
			c3.9,53,12.3,104.2,25.2,152.2c5.9,22,12.7,43.4,20.4,64c35.2,11.5,68.5,25.5,99.5,42.1c50.7,27.1,99.3,63.1,144.5,106.8
			c36.1,34.9,70,74.9,100.8,118.8c33.7,48,56.4,90.4,68.4,114.7c-2.2-27.1-4.5-75.1-0.3-133.6
			C1131.5,1293.9,1132.4,1283.8,1133.5,1273.8z"/>
		<path fill="#01BAB5" d="M956.1,1209.8c-44.6-43.2-92.5-78.6-142.6-105.4c-50.1-26.8-106.3-47-166.9-60.1
			c-48.6-10.5-100.2-16.4-153.3-17.7c-76.1-1.8-133.8,6.7-150.5,9.5c7,15.5,32,68.2,75.8,130.6c30.6,43.5,64.1,83,99.8,117.6
			c44.6,43.2,92.5,78.6,142.6,105.4c50.1,26.8,106.2,47,166.8,60c48.6,10.5,100.1,16.4,153.2,17.7c76.2,1.8,134-6.7,150.7-9.5
			c-7-15.5-32-68.2-75.8-130.6C1025.4,1283.9,991.8,1244.3,956.1,1209.8z"/>
		<path fill="#01BAB5" d="M1344.3,851.3c-45.3,42.4-83,88.6-112.2,137.2c-29.2,48.7-52.1,103.8-68.2,163.8
			c-12.8,48-21.3,99.3-25.2,152.3c-4.8,65.5-1.2,117.6,1.1,141.5c10.4-22,34.4-69,72.5-123.2c30.9-43.9,64.8-83.9,100.8-118.8
			c45.1-43.7,93.7-79.6,144.5-106.8c31-16.6,64.3-30.7,99.5-42.1c7.7-20.7,14.6-42.1,20.5-64.1c12.8-48,21.3-99.3,25.2-152.3
			c5.5-76-0.1-133.9-2.1-150.8c-15.8,6.2-69.7,28.6-134.1,69.4C1421.7,785.8,1380.5,817.4,1344.3,851.3z"/>
		<path fill="#01BAB5" d="M1781.5,1026.6c-53.1,1.3-104.7,7.2-153.2,17.7c-60.6,13.1-116.8,33.3-166.8,60
			c-50.1,26.8-98.1,62.3-142.7,105.5c-35.7,34.6-69.3,74.2-99.9,117.7c-43.8,62.3-68.8,114.9-75.7,130.4
			c16.7,2.8,74.5,11.3,150.7,9.5c53.1-1.3,104.7-7.2,153.2-17.7c60.6-13.1,116.8-33.3,166.8-60c50.1-26.8,98.1-62.3,142.7-105.5
			c35.7-34.6,69.3-74.2,99.9-117.7c43.8-62.3,68.8-114.9,75.7-130.4C1915.4,1033.3,1857.7,1024.8,1781.5,1026.6z"/>
		<path fill="#FFF795" d="M493.5,1018.6c-91.3-2.2-156.5,10.4-157.2,10.5l-4.8,0.9l1.9,4.5c0.3,0.6,26,61.8,78.6,136.5
			c30.9,43.9,64.8,83.9,100.8,118.8c45.1,43.7,93.7,79.6,144.5,106.8s107.6,47.6,169,60.8c49.1,10.6,101.2,16.6,154.8,17.9
			c7.3,0.2,14.4,0.3,21.3,0.3c67.6,0,117.5-7.6,131.7-10l0.1,0.8l1.9-0.7l1.3,1.6l1.3-1.6l1.9,0.7l0.1-0.8
			c14.2,2.4,64.2,10,131.7,10c6.9,0,14-0.1,21.3-0.3c53.6-1.3,105.7-7.3,154.8-17.9c61.4-13.2,118.3-33.7,169-60.8
			s99.3-63.1,144.5-106.8c36.1-34.9,70-74.9,100.8-118.8c52.5-74.8,78.3-135.9,78.6-136.5l1.9-4.5l-4.8-0.9
			c-0.6-0.1-65.8-12.6-157.2-10.5c-53.6,1.3-105.7,7.3-154.8,17.9c-20.5,4.4-40.4,9.7-59.9,15.7c6.9-19.1,13.2-38.8,18.6-59
			c13-48.5,21.5-100.2,25.4-153.8c6.6-91.1-2.7-156.8-2.8-157.5l-0.7-4.9l-4.6,1.7c-0.6,0.2-63,23-140.2,71.8
			c-45.4,28.7-86.9,60.6-123.6,94.9c-15.3,14.3-29.7,29.1-43.3,44.2c-3.9-19.9-8.7-40-14.4-60.2c-13.8-48.3-33.1-97-57.2-144.9
			c-41.2-81.6-82.9-133.1-83.3-133.6l-3.1-3.8l-3.1,3.8c-0.4,0.5-42.2,52.1-83.3,133.6c-24.2,47.9-43.4,96.7-57.2,144.9
			c-5.8,20.1-10.6,40.2-14.4,60.2c-13.6-15.1-28-29.9-43.3-44.2c-36.7-34.3-78.3-66.2-123.6-94.9c-77.2-48.8-139.6-71.6-140.2-71.8
			l-4.6-1.7l-0.7,4.9c-0.1,0.7-9.4,66.4-2.8,157.5c3.9,53.5,12.4,105.2,25.4,153.8c5.4,20.2,11.6,39.9,18.6,59
			c-19.4-6-39.4-11.2-59.9-15.7C599.2,1025.9,547.1,1019.9,493.5,1018.6z M1628.2,1044.3c48.6-10.5,100.1-16.4,153.2-17.7
			c76.2-1.8,134,6.7,150.7,9.5c-7,15.5-31.9,68.1-75.7,130.4c-30.6,43.5-64.2,83.1-99.9,117.7c-44.6,43.2-92.6,78.7-142.7,105.5
			c-50.1,26.8-106.2,47-166.8,60c-48.6,10.5-100.1,16.4-153.2,17.7c-76.2,1.8-134-6.7-150.7-9.5c7-15.5,31.9-68.1,75.7-130.4
			c30.6-43.5,64.2-83.1,99.9-117.7c44.6-43.2,92.6-78.7,142.7-105.5C1511.5,1077.6,1567.6,1057.4,1628.2,1044.3z M1344.3,851.3
			c36.3-34,77.4-65.6,122.3-94c64.4-40.7,118.3-63.2,134.1-69.4c2,16.8,7.6,74.8,2.1,150.8c-3.9,53-12.3,104.2-25.2,152.3
			c-5.9,22.1-12.7,43.5-20.5,64.1c-35.2,11.5-68.5,25.5-99.5,42.1c-50.7,27.1-99.3,63.1-144.5,106.8c-36.1,34.9-70,74.9-100.8,118.8
			c-38.1,54.2-62.1,101.2-72.5,123.2c-2.3-23.9-5.9-76-1.1-141.5c3.9-53,12.3-104.2,25.2-152.3c16-60,39-115.1,68.2-163.8
			C1261.2,939.9,1299,893.7,1344.3,851.3z M1001.5,831.8c13.7-47.8,32.7-96,56.6-143.5c34.3-68.1,69-115,79.4-128.4
			c10.4,13.4,45.1,60.4,79.4,128.4c23.9,47.4,43,95.7,56.6,143.5c6.3,21.9,11.4,43.8,15.4,65.4c-24.3,27.9-45.6,57.1-63.7,87.3
			c-29.6,49.4-52.8,105.2-69,165.9c-7.9,29.4-14.1,60.1-18.7,91.6c-4.6-31.5-10.8-62.1-18.7-91.6c-16.2-60.7-39.4-116.5-69-165.9
			c-18.1-30.2-39.4-59.3-63.7-87.3C990.1,875.5,995.2,853.7,1001.5,831.8z M697.3,991.2c-12.8-48-21.3-99.2-25.2-152.2
			c-5.5-76,0.1-134.1,2.1-151c15.8,6.2,69.7,28.6,134.1,69.3c44.9,28.4,86.1,60,122.3,94c45.3,42.4,83,88.6,112.2,137.2
			c29.2,48.7,52.1,103.8,68.1,163.7c10.3,38.7,17.9,79.5,22.4,121.6c-1.1,10-2,20.1-2.7,30.2c-4.3,58.5-1.9,106.5,0.3,133.6
			c-12-24.4-34.7-66.7-68.4-114.7c-30.9-43.9-64.8-83.9-100.8-118.8c-45.1-43.7-93.7-79.6-144.5-106.8c-31-16.6-64.3-30.7-99.5-42.1
			C710.1,1034.6,703.2,1013.2,697.3,991.2z M813.5,1104.4c50.1,26.8,98,62.2,142.6,105.4c35.7,34.6,69.3,74.1,99.8,117.6
			c43.8,62.4,68.9,115.1,75.8,130.6c-16.7,2.8-74.5,11.3-150.7,9.5c-53.1-1.3-104.7-7.2-153.2-17.7c-60.6-13.1-116.8-33.3-166.8-60
			c-50.1-26.8-98-62.2-142.6-105.4c-35.7-34.6-69.3-74.1-99.8-117.6c-43.8-62.4-68.9-115.1-75.8-130.6c16.7-2.8,74.3-11.3,150.5-9.5
			c53.1,1.3,104.7,7.2,153.3,17.7C707.3,1057.4,763.5,1077.6,813.5,1104.4z"/>
	</g>
	<g>
		<g>
			<polygon fill="#029490" points="345.8,1434.1 119.5,1627.5 119.5,1641.8 2152.5,1641.8 2152.5,1627.5 1926.2,1434.1 			"/>
		</g>
		<g>
			<polygon fill="#01BAB5" points="345.8,1419.8 119.5,1627.5 2152.5,1627.5 1926.2,1419.8 			"/>
		</g>
		<g>
			<rect x="170.6" y="1414.8" fill="#010101" width="1956.7" height="10"/>
		</g>
		<g>
			<ellipse fill="#029490" cx="1144.6" cy="1507.5" rx="797.3" ry="87.7"/>
		</g>
		<g>
			<g>
				<path fill="#437BBF" d="M1136,1291.4c-46.2-6.1-93.7-9.3-141.5-9.3c-159.5,0-376.7,24.4-455.3,120l138.3,78.5l458.6,34.1
					l458.6-34.1l138.3-78.5c-78.6-95.6-295.8-120-455.3-120C1229.7,1282.1,1182.2,1285.3,1136,1291.4z"/>
			</g>
			<g>
				<path fill="#4065AF" d="M733.9,1306.8c-83,18.1-155.8,48-194.8,95.3l138.3,78.5l458.6,34.1l458.6-34.1l138.3-78.5
					c-42.1-51.2-124-82-215.5-99.5c12.7,11.7,47.8,41.9,57.1,56.1c-174.3,2.3-341.1,87-348.1,90.6c-28.3-20.3-65.9-30.7-95.4-9.9
					c-16.4-12-35.7-17.8-55.7-12.9c-15.6,4.1-30.6,10.8-41.7,21.9c-65.6-20.3-127-48.5-193.9-68c-48.6-13.7-96.4-22.2-146.8-23
					C701,1336.2,716.3,1320.4,733.9,1306.8z"/>
			</g>
			<g>
				<path fill="#F3A890" d="M1700.6,1377.1c-86.8-36-358.1,89.3-493.5,89.3c-65.8,0-94.3-19.1-111-19.1c-7.5,0-14.6,2.1-20.3,5.9
					c-58.6,38.6-131.8,51.8-176.5,67.1h0c13.6,3.1,27.4,6,41,9c6.1,1.3,11,5.1,14.4,9.9c6.8-1.9,13.6-3.4,20.4-4.2
					c60.5-6.6,317.9,12.4,366.3,9.6c64-3.6,128.2-3.9,192.2-5.2c58.3-1.2,119.5-5.1,172.8-31.1c28.9-14.1,50.6-35.8,43.7-69.8
					C1744.8,1412.6,1725.1,1387.2,1700.6,1377.1z"/>
			</g>
			<g>
				<path fill="#B57D6B" d="M1681,1384c3-1,7,1,8,3c12.3,11.2,28.4,16.1,44.3,15.9c-8.8-11.3-20.1-20.6-32.7-25.8
					c-16.2-6.7-38.8-7.8-65.7-5.2c4.8,20.3,26.7,37.1,47.1,43.1c3,1,5-1,5-2c3-7-3-14-5-21C1681,1390,1678,1386,1681,1384z"/>
			</g>
			<g>
				<path fill="#B57D6B" d="M1664,1510c-11,5-22,7-33,8c-49,7-96,13-144,15c-26,1-52,6-76-3c-22-7-38-27-59-36c-29-12-60-17-88-33
					c0,0,0,0-0.1,0c-20.7,3.4-39.9,5.4-56.9,5.4c-0.9,0-1.7,0-2.6,0c-0.2,1.3-0.5,2.5-0.9,3.6c-8.6,23-17.9,45.9-26.4,69
					c72.8,3.4,141.5,6.9,164.2,5.6c64-3.6,128.2-3.9,192.2-5.2c58.3-1.2,119.5-5.1,172.8-31.1c27.3-13.3,48.1-33.4,44.6-64.1
					C1730.2,1473.8,1696.7,1494.5,1664,1510z"/>
			</g>
			<g>
				<path fill="#F3A890" d="M1175.9,1447.3c-16.7,0-45.1,19.1-111,19.1c-135.4,0-406.8-125.2-493.5-89.3
					c-24.5,10.2-44.3,35.5-49.5,61.4c-6.9,34,14.8,55.6,43.7,69.8c53.3,26,114.5,29.9,172.8,31.1c64.1,1.4,128.2,1.6,192.2,5.2
					c48.4,2.7,98.7,4.4,148.4,3.1c12.3-0.3,24.5-0.8,36.7-1.6c60.2-3.6,120.7-17.8,181.2-11.2c33.4,3.6,66.7,25.6,99.5,25.6
					c12.2,0,17.2-1.3,17.2-8.4c0-40.3-126.2-39-217.4-99C1190.5,1449.4,1183.4,1447.3,1175.9,1447.3z"/>
			</g>
			<g>
				<path fill="#F3A890" d="M1175.9,1447.3c-16.7,0-45.1,19.1-111,19.1c-135.4,0-406.8-125.2-493.5-89.3
					c-24.5,10.2-44.3,35.5-49.5,61.4c-6.9,34,14.8,55.6,43.7,69.8c53.3,26,114.5,29.9,172.8,31.1c64.1,1.4,128.2,1.6,192.2,5.2
					c48.4,2.7,305.8-16.2,366.3-9.6c33.4,3.6,66.7,25.6,99.5,25.6c12.2,0,17.2-1.3,17.2-8.4c0-40.3-126.2-39-217.4-99
					C1190.5,1449.4,1183.4,1447.3,1175.9,1447.3z"/>
			</g>
			<g>
				<path fill="#B57D6B" d="M587,1403c1,3,3,8,7,8c20.6-2.7,38.8-19,45.2-38.9c-27.9-2.9-51.2-1.9-67.8,4.9
					c-12.8,5.3-24.2,14.7-33,26.2c17.9,0.4,36.6-6.5,51.6-17.2C590,1392,586,1397,587,1403z"/>
			</g>
			<g>
				<path fill="#B57D6B" d="M1233,1521c-119,10-236,5-355,7c-20,0-39,0-59,0c-63-1-123-11-187-26c-43.1-9.1-92.5-33.4-106.3-76.3
					c-1.6,4.2-2.9,8.4-3.8,12.7c-6.9,34,14.8,55.6,43.7,69.8c53.3,26,114.5,29.9,172.8,31.1c64.1,1.4,128.2,1.6,192.2,5.2
					c48.4,2.7,305.8-16.2,366.3-9.6c33.4,3.6,66.7,25.6,99.5,25.6c10.4,0,15.5-0.9,16.8-5.6c-2.9-0.9-5.6-1.8-8.3-2.9
					C1350,1529,1292,1516,1233,1521z"/>
			</g>
			<g>
				<path fill="#F3A890" d="M1760.2,1321.8C1760.2,1321.8,1760.2,1321.8,1760.2,1321.8c0-2.3-2.9-4.1-5.5-4.1
					c-10.8,0-35.2,14.6-52.1,14.6c-1.9,0-14.4-2-16.2-2.3c27.4-6.6,52.1-20.9,52.1-57c0-12.8-3.5-31.2-16.3-31.2
					c-1.2,0-1.9,0.4-1.9,1.5c0,0,2,9.4,2,19.5c0,19.8-6.9,37.3-26.9,37.3c-14,0-25.9-10.8-34.3-22.2c11.8-18.5,45.5-26.6,45.5-37.2
					c0-5.7-8.8-8.5-14.5-8.5c-22.8,0-46.7,28.1-63.3,28.1c-1.7,0-9.1-1.9-10.9-2.4c-6.3,0-20.5-13.2-25.9-16.8
					c-8.1-5.3-16.2-10.7-24.3-16.2c-22.4-15.2-44.2-31.3-66.8-46.2c-18.6-12.3-34.4-25-44.1-41.6c-31-52.9-35.2-244.9-51.4-293.6
					c-14.4-43.3-36.1-66.6-81.7-70.6c-20-1.8-39.7-3.2-59-9.3c-12.3-3.9-24-9.4-35-16.1c-8-4.9-36.4-20.4-38.2-29.8
					c-3.5-19-4.1-39-4.1-58.8c0-10.9,0.2-21.8,0.2-32.3c0-3.4,0-6.8-0.1-10.1h-103c-0.1,3.3-0.1,6.7-0.1,10.1
					c0,10.6,0.2,21.4,0.2,32.3c0,19.8-0.6,39.7-4.1,58.8c-1.7,9.4-30.2,25-38.2,29.8c-11,6.7-22.7,12.2-35,16.1
					c-19.2,6.2-39,7.6-59,9.3c-45.6,4-67.3,27.3-81.7,70.6c-16.2,48.8-20.4,240.7-51.4,293.6c-9.7,16.6-25.5,29.3-44.1,41.6
					c-22.6,14.9-44.4,31-66.8,46.2c-8.1,5.4-16.1,10.8-24.3,16.2c-5.5,3.6-19.6,16.8-25.9,16.8c-1.9,0.5-9.2,2.4-10.9,2.4
					c-16.6,0-40.5-28.1-63.3-28.1c-5.7,0-14.5,2.8-14.5,8.5c0,10.6,33.6,18.7,45.5,37.2c-8.4,11.4-20.3,22.2-34.3,22.2
					c-20,0-26.9-17.5-26.9-37.3c0-10.1,2-19.5,2-19.5c0-1.1-0.8-1.5-1.9-1.5c-12.8,0-16.3,18.3-16.3,31.2c0,36.1,24.7,50.4,52.1,57
					c-1.9,0.3-14.3,2.3-16.2,2.3c-16.9,0-41.2-14.6-52.1-14.6c-2.6,0-5.5,1.8-5.5,4.1c0,0,0,0.1,0,0.1c0.9,26.2,34.2,31.6,60.4,31.6
					c6.5,0,14-1.1,20.4-3.9c-3.9,5.3-8.3,10-14.6,12.8c-13.2,5.9-40.5,5.9-40.5,24.2c0,3,9.9,4.6,14.1,4.6
					c12.4,0,42.2-13.3,60.5-34.9c-1.5,15.7-15.6,31.3-15.6,38.5c0,4.9-0.1,6.9,4.3,6.9c23.1,0,44.3-84.4,84.8-105.7
					c0,0-0.1-0.1-0.1-0.1c41.4-16,82.2-34.6,120.2-57.7c19.4-11.8,39.4-25.2,55.7-42c45.2-46.7,43.7-117.8,56.9-178.4
					c3.1-14.1,6.3-28.2,9.9-42.2c2.7-10.7,5.6-21.3,8.8-31.8c1-3.4,10.5-24.1,9.1-26.3c4.8,7.3,8.8,15.2,12.1,23.5
					c-2.5,9.2-6.6,20.3-6.6,40.4c0,48.4,22.5,69.3,44,83.2c11.4,23.8,18.5,49.7,18.5,75.7c0,64.7-44.5,83.8-54.5,142.2
					c60.2,31.2,176.5,42.3,176.5,42.3c64.3,0,116.3-11.1,176.5-42.3c-9.9-58.4-54.5-77.5-54.5-142.2c0-26,7.1-51.9,18.5-75.7
					c21.4-13.9,44-34.8,44-83.2c0-20.1-4.1-31.3-6.6-40.4c3.3-8.2,7.2-16.2,12.1-23.5c-1.4,2.2,8,22.9,9.1,26.3
					c3.2,10.5,6.1,21.2,8.8,31.8c3.6,14,6.8,28.1,9.9,42.2c13.2,60.5,11.8,131.7,56.9,178.4c16.2,16.8,36.3,30.2,55.7,42
					c38,23.1,78.8,41.7,120.2,57.7c0,0-0.1,0.1-0.1,0.1c40.5,21.3,61.7,105.7,84.8,105.7c4.4,0,4.3-2.1,4.3-6.9
					c0-7.2-14.1-22.7-15.6-38.5c18.3,21.6,48.2,34.9,60.5,34.9c4.2,0,14.1-1.6,14.1-4.6c0-18.2-27.3-18.3-40.5-24.2
					c-6.3-2.8-10.7-7.5-14.6-12.8c6.4,2.8,13.9,3.9,20.4,3.9C1726,1353.5,1759.4,1348,1760.2,1321.8z"/>
			</g>
			<g>
				<g>
					<path fill="#B57D6B" d="M951.5,981.8c11.6-20.7,23.2-39.8,28.5-62.8c10.8-51.5,20-102.2,15.1-152.1c-3.5,0.8-7.1,1.5-10.7,2.1
						C983,820.9,986,876.2,960,921.9c1,0.3,2,0.7,3,1.1c-1-0.4-2-0.8-3-1.1c-1,1.7-2,3.4-3,5.1c1.1-1.7,2.1-3.4,3-5.1
						c-3.9-1.2-8.1-1.6-12.1-1.5c4,6.5,7.3,13.4,10.2,20.5c-2.5,9.2-6.6,20.3-6.6,40.4C951.5,981.5,951.5,981.6,951.5,981.8z"/>
				</g>
				<g>
					<path fill="#B57D6B" d="M1315,924.2c0.7,1.6,1.3,3.2,2,4.8C1316.3,927.4,1315.6,925.8,1315,924.2c-0.8,0.8-1.5,1.7-2,2.8
						C1313.5,926,1314.2,925,1315,924.2c-20.4-49.2-27.3-102.5-27.1-155.2c-5.1-0.8-10.1-1.8-15.1-3.1c0,55.8,4.7,112,27.2,165
						c4.7,11.2,11.9,21.1,19,31.1c-1.4-9-3.6-15.5-5.2-21.2c3.1-7.6,6.7-15,11.1-21.9C1321.2,920.1,1317.5,921.6,1315,924.2z"/>
				</g>
			</g>
			<g>
				<path fill="#B57D6B" d="M1042.7,1184.9c27.3,6,52.9,9.4,80.2,15.4c6,1.7,11.9,0.9,17.9,2.6c57.2,10.2,110.9,20.5,160.4,55.5
					c2.1,1.5,4.2,3,6.2,4.5c-14.7-42.8-47.6-64.5-49.4-118c-28.1,4.3-56.1,8.3-84.9,10.3c-18.8,0.9-37.6,2.6-56.3-0.9
					c-35.4-6.1-69.8-8.5-103.1-17c0,1,0.1,2.1,0.1,3.1c0,12.2-1.6,22.7-4.2,32.2C1019.7,1178.6,1031,1182.1,1042.7,1184.9z"/>
			</g>
			<g>
				<path fill="#B57D6B" d="M1191.1,715.5c-3.2-18.3-3.7-37.5-3.7-56.5c0-10.9,0.2-21.8,0.2-32.3c0-3.4,0-6.8-0.1-10.1h-103
					c-0.1,3.3-0.1,6.7-0.1,10.1c0,10.6,0.2,21.4,0.2,32.3c0,4.1,0,8.1-0.1,12.2C1117.2,692.5,1153.4,706.2,1191.1,715.5z"/>
			</g>
			<g>
				<g>
					<path fill="#B57D6B" d="M1127.4,946.6c-0.2,1.9-0.9,3.9-0.2,5.8c0.7,2,3.2,3.6,5.3,2.1c3.9-2.7,4.1-9.3,4.3-13.6
						c0.2-5.6-0.5-11.2-1.8-16.7c-2.3-9.9-7.4-19.5-16.5-24.7c-0.5-0.3-1-0.4-1.4-0.4c12.5,20.3,10.6,36.5,10.7,40.9
						C1127.7,942.4,1127.6,944.5,1127.4,946.6z"/>
				</g>
				<g>
					<path fill="#B57D6B" d="M1153.6,899.7c-9.1,5.1-14.2,14.8-16.5,24.7c-1.3,5.4-2,11.1-1.8,16.7c0.2,4.3,0.4,10.8,4.3,13.6
						c2,1.4,4.6-0.1,5.3-2.1c0.7-1.9,0-3.9-0.2-5.8c-0.2-2.1-0.3-4.3-0.3-6.4c0-4.4-1.8-20.6,10.7-40.9
						C1154.5,899.3,1154.1,899.4,1153.6,899.7z"/>
				</g>
			</g>
			<g>
				<g>
					<path fill="#B57D6B" d="M1016.8,782.6c19,12,64.2,11.2,105.6,19.9C1088.8,790.2,1052.6,785.1,1016.8,782.6z"/>
				</g>
				<g>
					<path fill="#B57D6B" d="M1151.5,802.4c41.4-8.7,86.6-7.9,105.6-19.9C1221.3,785.1,1185.1,790.2,1151.5,802.4z"/>
				</g>
			</g>
			<g>
				<path fill="#9FD6BF" d="M1320.5,981.3c0-14.1-2-23.7-4.1-31.4c-26.9-55-34.8-119.9-31.8-181.2c0.1-2.2-1.4-4.1-3.5-4.5
					c-7.2-1.4-15-3.1-22.8-5.8c-2.6-0.9-5.5,0.8-5.8,3.6c-8.1,63.7-28.7,134.4-93.1,159.1c-7.9,3-15.5,5.1-23.3,7
					c-7.8-1.9-15.4-4-23.3-7c-64.4-24.7-85-95.4-93.1-159.1c-0.4-2.8-3.2-4.5-5.8-3.6c-7.8,2.7-15.6,4.3-22.8,5.8
					c-2.1,0.4-3.7,2.3-3.5,4.5c2.9,61.3-4.9,126.2-31.8,181.2c-2.1,7.7-4.1,17.4-4.1,31.4c0,48.4,22.5,69.3,44,83.2
					c11.4,23.8,18.5,49.7,18.5,75.7c0,5.6-1.3,11.8-2.1,17c-0.2,1,0.4,2,1.4,2.4c38.5,14.6,81.7,16,122.7,15.6
					c41.1,0.3,84.2-1,122.7-15.6c1-0.4,1.6-1.4,1.4-2.4c-0.8-5.2-2.1-11.4-2.1-17c0-26,7.1-51.9,18.5-75.7
					C1297.9,1050.6,1320.5,1029.8,1320.5,981.3z"/>
			</g>
			<g>
				<path fill="#86B39F" d="M1005.8,1090.4c29.8-7,57.1-24.2,73.6-50.7c-32.3,26.6-84.5,24.4-83.9,24.8
					C999.5,1073,1003,1081.6,1005.8,1090.4z"/>
			</g>
			<g>
				<path fill="#86B39F" d="M1266.7,1090.4c2.8-8.8,6.3-17.5,10.3-25.9c0.6-0.4-51.6,1.8-83.9-24.8
					C1209.6,1066.2,1236.8,1083.4,1266.7,1090.4z"/>
			</g>
			<g>
				<g>
					<g>
						<path fill="#010101" d="M1084.8,308.5c-1.9,21.2,11.3,42.5,26.9,56.8l40.4,5.9c23.6-14.6,34.2-50.6,35.2-61.8
							c2.7-29.5-23.4-44.1-40.6-45.7C1116.1,261,1087.4,279.6,1084.8,308.5z"/>
					</g>
				</g>
				<g>
					<g>
						<path fill="#437BBF" d="M1093.6,368.6l90.3,9.2c-2.2-5.5-5.9-41.3-45.7-41.3C1117.9,336.5,1096.8,347.2,1093.6,368.6z"/>
					</g>
				</g>
				<g>
					<g>
						<path fill="#010101" d="M1005.6,489.3c0,42.6,13.7,88.3,55.9,110.9c11.9,6.4,23.9,11.8,36.7,11.9c11.6,0.2,23.7,0.5,36,0.5
							c73.4,0,127.4-25.3,127.4-111.9c0-88-27.7-147.6-126.2-147.6C1076.8,353.2,1005.6,393,1005.6,489.3z"/>
					</g>
				</g>
				<g>
					<g>
						<g>
							<path fill="#F3A890" d="M1040.2,516.3c-6.9,0-16.5,8-16.5,21c0,25.1,26.7,50.2,47.2,50.2l-13.3-60.6
								C1053.2,521.7,1046.7,516.3,1040.2,516.3z"/>
						</g>
					</g>
					<g>
						<g>
							<path fill="#F3A890" d="M1049.8,528c0,61.5,24.2,150.2,86.2,150.2c62,0,86.2-88.7,86.2-150.2c0-57.9-20.8-124.2-86.2-126.3
								C1070.6,403.8,1049.8,470,1049.8,528z"/>
						</g>
					</g>
					<g>
						<g>
							<path fill="#F3A890" d="M1214.4,526.9l-13.3,60.6c20.5,0,47.2-25,47.2-50.2c0-13-9.6-21-16.5-21
								C1225.3,516.3,1218.8,521.7,1214.4,526.9z"/>
						</g>
					</g>
				</g>
				<g>
					<g>
						<path fill="#010101" d="M1050.3,520.1c40.4-7.2,86.4-30.1,106.7-66.6c10.4,33.4,35.2,69.4,70.9,69.7c1-7.3,1.6-14.7,1.6-22.3
							c0-73.7-45.5-119.2-96.2-119.2C1038.9,381.7,1030.3,496.1,1050.3,520.1z"/>
					</g>
				</g>
				<g>
					<g>
						<path fill="#010101" d="M1050.3,496.1c-2.4,8.3-3.4,16.8-3.4,25.3c0,15.9,3.7,31.9,9.4,46.9c-0.7-6.4-1.2-13-1.2-19.5
							c0-17,3.1-33.9,11.9-48.9L1050.3,496.1z"/>
					</g>
				</g>
				<g>
					<g>
						<path fill="#010101" d="M1225.5,521.4c0-8.5-1.1-17-3.4-25.3l-16.7,3.9c8.8,15,11.9,31.9,11.9,48.9c0,6.5-0.4,13-1.2,19.5
							C1221.8,553.4,1225.5,537.4,1225.5,521.4z"/>
					</g>
				</g>
			</g>
			<g>
				<ellipse fill="#B57D6B" cx="1141.4" cy="1273" rx="3.2" ry="11.7"/>
			</g>
			<g>
				<path fill="#010101" d="M1157.5,627.7c-21.8,14.4-42.7,0.2-42.9,0c-0.5-0.3-1.1-0.2-1.4,0.2c-0.3,0.5-0.2,1.1,0.2,1.4
					c0.1,0.1,9.9,6.8,23.2,6.8c6.7,0,14.3-1.7,21.9-6.7c0.5-0.3,0.6-0.9,0.3-1.4C1158.5,627.6,1157.9,627.4,1157.5,627.7z"/>
			</g>
			<g>
				<g>
					<g>
						<path fill="#010101" d="M1116.1,555.9c-3.8,3.2-8.8,5-14.3,5c-6.3,0-12.3-2.3-16.5-6.3c-0.4-0.4-1-0.4-1.4,0
							c-0.4,0.4-0.4,1,0,1.4c4.6,4.4,11.1,6.9,17.9,6.9c5.9,0,11.5-1.9,15.6-5.4c0.4-0.4,0.5-1,0.1-1.4
							C1117.1,555.6,1116.5,555.6,1116.1,555.9z"/>
					</g>
				</g>
				<g>
					<g>
						<path fill="#010101" d="M1191.1,554.6c-4.2,4-10.2,6.3-16.5,6.3c-5.4,0-10.5-1.8-14.3-5c-0.4-0.4-1.1-0.3-1.4,0.1
							c-0.4,0.4-0.3,1.1,0.1,1.4c4.1,3.5,9.7,5.4,15.6,5.4c6.8,0,13.3-2.5,17.9-6.9c0.4-0.4,0.4-1,0-1.4
							C1192.1,554.2,1191.5,554.2,1191.1,554.6z"/>
					</g>
				</g>
			</g>
			<g>
				<g>
					<g>
						<path fill="#010101" d="M1096.6,531.6c-5.6,0-11.2,1.3-16.3,3.6c-0.7,0.4-1.1,1.2-0.7,2s1.2,1.1,2,0.7c4.7-2.2,9.9-3.4,15-3.4
							c8.1,0,15.2,2.9,20.1,8.1c0.3,0.3,0.7,0.5,1.1,0.5c0.4,0,0.7-0.1,1-0.4c0.6-0.6,0.6-1.5,0.1-2.1
							C1113.5,534.8,1105.6,531.6,1096.6,531.6z"/>
					</g>
				</g>
				<g>
					<g>
						<path fill="#010101" d="M1178.4,531.6c-8.9,0-16.9,3.2-22.3,9.1c-0.6,0.6-0.5,1.6,0.1,2.1c0.3,0.3,0.7,0.4,1,0.4
							c0.4,0,0.8-0.2,1.1-0.5c4.9-5.2,12-8.1,20.1-8.1c5.2,0,10.4,1.2,15,3.4c0.7,0.4,1.6,0,2-0.7c0.4-0.7,0-1.6-0.7-2
							C1189.6,532.9,1184,531.6,1178.4,531.6z"/>
					</g>
				</g>
			</g>
		</g>
	</g>
	<g>
		<g>
			<g>
				<g>
					<path fill="#01BAB5" d="M981.6,644.2c-5-0.3-10.4,2.6-13.1,6.2c-1.4,1.8-2,3.6-2.2,4.8c-0.2,1.3-0.1,2-0.1,2s0.8,0.1,1.8,0.3
						c1.1,0.3,2.4,0.8,3.7,1.6c2.7,1.5,5.3,3.5,9,3.7c3.7,0.1,7.8-1.6,10.9-3.6c1.6-1,2.9-2,3.8-2.7c0.9-0.8,1.4-1.3,1.4-1.3
						s-0.4-0.6-1.1-1.6c-0.7-1-1.7-2.3-2.9-3.6C990.4,647.3,986.7,644.4,981.6,644.2z"/>
				</g>
			</g>
		</g>
	</g>
</g>
</svg>
